<?xml version="1.0" encoding="utf-8"?>
<svg xmlns="http://www.w3.org/2000/svg" xmlns:xlink="http://www.w3.org/1999/xlink" x="0px" y="0px"
	 viewBox="0 0 46.8 47.8" style="enable-background:new 0 0 46.8 47.8;" xml:space="preserve">
<style type="text/css">
	.st0{clip-path:url(#SVGID_00000044873844409869729200000012464342423582747526_);}
	.st1{fill:#003970;}
	.st2{fill:#FFFFFF;}
	.st3{fill:#D9000A;}
</style>
<g>
	<defs>
		<rect id="SVGID_1_" x="5.8" y="0" width="35.3" height="48"/>
	</defs>
	<clipPath id="SVGID_00000094617765748829259510000000355598020107375039_">
		<use xlink:href="#SVGID_1_"  style="overflow:visible;"/>
	</clipPath>
	<g style="clip-path:url(#SVGID_00000094617765748829259510000000355598020107375039_);">
		<path class="st1" d="M5.8,41.9c0,3.3,2.7,6,6,6h23.1c3.3,0,6-2.7,6-6v-36c0-3.3-2.7-6-6-5.9H11.8c-3.3-0.1-6,2.6-6,5.9V41.9z"/>
		<path class="st2" d="M11.8,1.3c-2.6,0-4.6,2.1-4.6,4.6v36c0,2.6,2.1,4.6,4.6,4.6h23.1c2.6,0,4.6-2.1,4.6-4.6v-36
			c0-2.6-2.1-4.6-4.6-4.6H11.8z"/>
		<path class="st1" d="M11.8,2C9.6,2,7.8,3.7,7.8,5.9c0,0,0,0,0,0v36c0,2.2,1.8,3.9,3.9,3.9c0,0,0,0,0,0h23.1c2.2,0,3.9-1.7,3.9-3.9
			c0,0,0,0,0,0v-36C38.8,3.7,37,2,34.9,2c0,0,0,0,0,0C34.9,2,11.8,2,11.8,2z"/>
		<path class="st2" d="M12.9,8.2h0.6c0.3,0,0.6,0.2,0.6,0.6c0,0.4-0.3,0.6-0.7,0.6h-0.5L12.9,8.2L12.9,8.2L12.9,8.2z M11.7,10.8
			c0,0.1-0.1,0.2-0.2,0.2H11v0.5h2.5V11h-0.4c-0.2,0-0.2-0.1-0.2-0.2V9.9h0.7c1.2,0,1.8-0.3,1.8-1.1s-0.6-1.1-1.6-1.1H11v0.5h0.4
			c0.2,0,0.2,0.1,0.2,0.2L11.7,10.8L11.7,10.8z M20.3,10H20c-0.1,0-0.2,0.1-0.2,0.2v1.3h-0.6l-0.1-0.3c-0.4,0.3-0.8,0.4-1.2,0.4
			c-1.3,0-2.2-0.7-2.2-2s0.9-2.1,2.2-2.1c0.4,0,0.8,0.1,1.1,0.4l0.1-0.3h0.6V9h-0.6c0-0.6-0.4-0.9-1-0.9c-0.7,0-1.1,0.5-1.1,1.5
			c0,1,0.3,1.5,1.1,1.5c0.2,0,0.5-0.1,0.5-0.4v-0.5c0-0.1-0.1-0.2-0.2-0.2h-0.3V9.5h2.3L20.3,10C20.3,10,20.3,10,20.3,10z
			 M25.1,11.1c-0.4-0.1-0.4-0.2-0.6-0.5l-1.2-2.9h-0.9l-1.2,2.6c-0.2,0.4-0.3,0.7-0.8,0.7v0.4h1.9v-0.4h-0.1c-0.1,0-0.5,0-0.5-0.2
			c0-0.1,0-0.2,0.1-0.3l0.1-0.2h1.5l0.1,0.2c0,0.1,0.1,0.2,0.1,0.3c0,0.2-0.4,0.1-0.5,0.2v0.4h2.2L25.1,11.1L25.1,11.1L25.1,11.1z
			 M22,10l0.6-1.3l0.5,1.3C23.1,10,22,10,22,10z"/>
		<path class="st2" d="M36,13c0.6-0.6,0.6-2,0.6-2c-0.6-1.1-1.9-1.4-1.9-1.4c-0.3-0.2-0.5,0-0.6,0.1L24,3.6c-0.7-0.4-1.8,0.9-2,1.4
			c-0.1,0.2,0.2,0.4,0.5,0.6c0.9,0.6,1.3-0.9,1.7-1.5l9.8,6.1c0,0,0,0.5,0.1,0.5c0,0.8,0.6,1.5,0.3,2.6c-0.1,1.6-1.9,1.9-2.8,2.9
			c-0.9,0.9-2.6,0.7-3.4,1.4l0,0v0c-0.6-1.6-1-1.7-1.2-2.4c-0.8-0.3-1.7-0.4-2.4,0c-0.7,0.5-1.1,1.3-0.9,2.1c0,0.8,1.1,1.6,1.7,2
			c-0.4,0.5-0.6,1.2-0.6,1.5c-0.1,1.2,0.8,2.3,1.1,2.7c1.1,1.6,1.7,2.9,1.9,3.3c0,0.1,0.1,0.1,0,0.3c0,0-0.9,1.7,0.6,4
			c0.6,1.2,1.5,3.8,1.5,3.9c0.4,0.4-0.5,0.2-0.6,1c-0.6,0.2-5.2,3.7-6.2,4.6c-0.4,0.1-0.9,0.1-1.1,0.6c0,0-0.2,0.5-0.3,0.6
			c-0.5,0.5-1,1.4-1,2.3c-0.1,0.4,0,1.3,0.5,1.6c0.2,0.1,0.3,0,0.4,0c0.1,0,0.4-0.8,0.4-0.9c0.4-0.9,0.9-1.1,2.1-2.3
			c0.6,0.2,0.9,0.5,1.5,0.7c1.7-1.6,3.4-3,5.1-4.7c-0.3,2.5-0.5,5.1-0.5,5.8c-0.1,0.4-0.1,1.2,0.2,1.6c0,0,2.8,0.2,3.3,0.1
			c0.3,0,0.3-0.2,0.3-0.2s0.3-0.4-0.4-0.9c-0.2-0.2-0.7-0.7-1-1c0.5-0.1,1-0.2,1.1-0.2c-0.1-1.3-0.2-4.2-0.3-7.9
			c-0.4-3.9-0.5-5.2-2.4-13.1c1.4-1.6,1.3-2.5,2.6-4.1C34.4,17.3,35.5,14.5,36,13L36,13z M30.1,20.2c0-0.1-0.3-0.7-0.3-1
			c0,0,1.8-1.2,1.8-1.2s0,0.1,0,0.2C31.5,18.3,30.4,20,30.1,20.2z M19.1,41.1c-0.1,0-0.3,0-0.3-0.3v-0.3c0-0.4,0-0.8-0.2-1.2
			c0-0.1-0.1-0.2-0.2-0.3c0,0,0,0,0.1,0h0c0.5-0.4,0.7-0.9,0.7-1.5c0-0.4-0.1-0.9-0.3-1.2v0c-0.3-0.5-0.7-0.8-1.2-0.9
			c0.7-0.4,1.1-1.1,1.1-2.2v-3.3h0.9l0-2.2h-2.1c1.2-0.7,1.9-1.9,1.9-3.5c0-1.8-0.8-2.9-1.8-3.5h0.8v-2h-1.5V15
			c0.3,0,0.6,0.4,0.6,0.9l0,0.7h2.1v-3.8H11v3.8h2.1l0-0.7c0-0.5,0.3-0.9,0.6-0.9v3.6h-1.5v2h0.7c-1,0.6-1.8,1.7-1.8,3.5
			c0,1.6,0.7,2.9,1.9,3.5H11v2.2h0.9v3.5c0,0.7,0.3,1.4,1.1,1.8h-2v2.1h0.8c0,0,0.1,0,0.1,0.1v3.4c0,0.2-0.1,0.1-0.1,0.2H11v2.1h5.2
			v-0.6c0.4,0.4,1,0.7,1.8,0.7h1.8v-2.1L19.1,41.1L19.1,41.1z M15.1,29.8h1.3c0,0,0.1,0,0.1,0.1v3.3c0,0.2-0.2,0.4-0.7,0.4
			c-0.5,0-0.8-0.2-0.8-0.4v-3.3C15,29.8,15.1,29.8,15.1,29.8L15.1,29.8z M16.1,24.1c0,1.3-0.3,2-0.9,2c-0.3,0-0.9,0-0.9-2
			s0.6-2,0.9-2C15.6,22.2,16.1,22.2,16.1,24.1z M15.1,41.1C15,41.1,15,41,15,41v-0.8h0.6c0.2,0,0.3,0,0.3,0.2v0.7L15.1,41.1
			L15.1,41.1z M15,38.1v-0.9h0.9c0.2,0,0.4,0.2,0.4,0.4c0,0.3-0.2,0.5-0.4,0.5C15.8,38.1,15,38.1,15,38.1z"/>
		<path class="st3" d="M18.9,13.4h-7.3V16h1v-0.1c0-1,0.6-1.4,1.2-1.4c0.4,0,0.6,0.1,0.6,0.2v4.1c0,0.2-0.1,0.5-0.3,0.5h-1.2v0.9
			h5.1v-0.9h-1.2c-0.2,0-0.3-0.2-0.3-0.5v-4.1c0-0.1,0.2-0.2,0.6-0.2c0.6,0,1.2,0.4,1.2,1.4V16h1v-2.6L18.9,13.4L18.9,13.4z
			 M19,28.2h-3v1h0.6c0.2,0,0.3,0,0.4,0.1c0.1,0.1,0.1,0.2,0.1,0.3v3.7c0,0.2-0.2,0.8-1.3,0.8c-0.9,0-1.3-0.3-1.3-0.9v-3.6
			c0-0.4,0.2-0.4,0.4-0.4h0.7v-1h-3.9v1H12c0.2,0,0.3,0,0.4,0.1c0.1,0.1,0.1,0.2,0.1,0.3v3.7c0,0.9,0.8,1.9,3.1,1.9
			c2.3,0,2.6-1.1,2.6-2.1v-3.4c0-0.4,0.2-0.4,0.4-0.4H19V28.2L19,28.2z M15.2,20.6c-1.8,0-3.6,0.9-3.6,3.5c0,2.2,1.4,3.5,3.6,3.5
			s3.6-1.3,3.6-3.5C18.9,21.5,17,20.6,15.2,20.6z M15.3,26.7c-0.6,0-1.4-0.2-1.4-2.5c0-1.7,0.5-2.5,1.4-2.5c1,0,1.4,0.7,1.4,2.5
			C16.7,25.8,16.2,26.7,15.3,26.7z M19.1,41.6c-0.3,0-0.8,0-0.8-0.8v-0.3c0-0.3,0-0.7-0.2-1c-0.1-0.3-0.5-0.5-0.7-0.6
			c0.3-0.1,0.5-0.2,0.8-0.4c0.3-0.3,0.5-0.6,0.5-1.1c0-0.3-0.1-0.7-0.2-1c-0.3-0.5-0.9-0.8-1.8-0.8h-5.1v1h0.7
			c0.3,0,0.3,0.3,0.3,0.3v4.2c0,0.2-0.2,0.3-0.3,0.3h-0.7v1h4.2v-1h-1.1c-0.1,0-0.3-0.2-0.3-0.4v-1.7h1.2c0.1,0,0.7,0.1,0.7,0.7v0.4
			c0,0.4,0,0.7,0.1,1.1c0.3,0.6,0.8,0.9,1.6,0.9h1.2v-1.1L19.1,41.6L19.1,41.6z M14.4,36.6h1.5c0.5,0,0.8,0.2,0.9,0.6
			c0.1,0.2,0.1,0.6,0,0.8c-0.1,0.4-0.5,0.6-0.9,0.6h-1.5V36.6z"/>
	</g>
</g>
</svg>
