<svg xmlns="http://www.w3.org/2000/svg" x="0px" y="0px" viewBox="0 0 450.8 46.6">
  <title>A Perfect Pair</title>
  <g>
    <g>
      <path fill="#EE2840" d="M46.7,44.6H31.6l-1.7-6H17.8l-1.6,6H1.7
        L16.5,2h15.4L46.7,44.6z M27.1,27.9l-3.1-11.4l-3.1,11.4H27.1z"/>
    </g>
    <g>
      <linearGradient id="lg1" gradientUnits="userSpaceOnUse" x1="77.5999" y1="67.3382" x2="410.36" y2="-32.7843" gradientTransform="matrix(1 0 0 -1 0 93.3199)">
        <stop  offset="0" style="stop-color:#EF2734"/>
        <stop  offset="0.1454" style="stop-color:#EF3031"/>
        <stop  offset="0.3872" style="stop-color:#F14A29"/>
        <stop  offset="0.6937" style="stop-color:#F3731C"/>
        <stop  offset="1" style="stop-color:#F5A30D"/>
      </linearGradient>
      <path class="st0" style="fill:url(#lg1);"  d="M87.7,27.9c-3.1,2.5-7.2,3.4-11.8,3.4h-4.6v13.3H57.4V2h18.5c4.6,0,8.8,0.9,11.8,3.4
        c3.1,2.5,4.8,6.2,4.8,11.3C92.5,21.7,90.8,25.4,87.7,27.9z M76.9,13.3c-0.9-0.7-1.8-0.8-3.4-0.8h-2.3v8.3h2.3
        c1.5,0,2.5-0.1,3.4-0.7c1-0.7,1.5-1.7,1.5-3.4C78.5,15,77.9,13.9,76.9,13.3z"/>
      <linearGradient id="lg2" gradientUnits="userSpaceOnUse" x1="81.0036" y1="78.6506" x2="413.7636" y2="-21.4719" gradientTransform="matrix(1 0 0 -1 0 93.3199)">
        <stop  offset="0" style="stop-color:#EF2734"/>
        <stop  offset="0.1454" style="stop-color:#EF3031"/>
        <stop  offset="0.3872" style="stop-color:#F14A29"/>
        <stop  offset="0.6937" style="stop-color:#F3731C"/>
        <stop  offset="1" style="stop-color:#F5A30D"/>
      </linearGradient>
      <path style="fill:url(#lg2);" d="M125.4,44.6H94.5V2h30.2v11h-16.3v4.6
        h15.4v10.9h-15.4v4.9h17L125.4,44.6L125.4,44.6z"/>
      <linearGradient id="lg3" gradientUnits="userSpaceOnUse" x1="83.5618" y1="87.1525" x2="416.3218" y2="-12.97" gradientTransform="matrix(1 0 0 -1 0 93.3199)">
        <stop  offset="0" style="stop-color:#EF2734"/>
        <stop  offset="0.1454" style="stop-color:#EF3031"/>
        <stop  offset="0.3872" style="stop-color:#F14A29"/>
        <stop  offset="0.6937" style="stop-color:#F3731C"/>
        <stop  offset="1" style="stop-color:#F5A30D"/>
      </linearGradient>
      <path style="fill:url(#lg3);" d="M167.4,44.6h-16l-6.8-14.2h-1.8v14.2
        h-13.9V2h18.5c5.2,0,9.2,0.9,12.3,3.1s5.2,5.9,5.2,10.5c0,8.6-5.2,11.7-7.1,12.8L167.4,44.6z M149.4,13.3
        c-0.6-0.5-1.5-0.8-3.1-0.8h-3.5v7.4h3.5c1.5,0,2.5-0.3,3.1-0.7c0.7-0.5,1.5-1.1,1.5-3S150,13.7,149.4,13.3z"/>
      <linearGradient id="lg4" gradientUnits="userSpaceOnUse" x1="87.0921" y1="98.8855" x2="419.8521" y2="-1.237" gradientTransform="matrix(1 0 0 -1 0 93.3199)">
        <stop  offset="0" style="stop-color:#EF2734"/>
        <stop  offset="0.1454" style="stop-color:#EF3031"/>
        <stop  offset="0.3872" style="stop-color:#F14A29"/>
        <stop  offset="0.6937" style="stop-color:#F3731C"/>
        <stop  offset="1" style="stop-color:#F5A30D"/>
      </linearGradient>
      <path style="fill:url(#lg4);" d="M197.8,13H182v6.6h14.8v11H182v14h-13.9
        V2h29.6L197.8,13L197.8,13z"/>
      <linearGradient id="lg5" gradientUnits="userSpaceOnUse" x1="89.8158" y1="107.938" x2="422.5758" y2="7.8156" gradientTransform="matrix(1 0 0 -1 0 93.3199)">
        <stop  offset="0" style="stop-color:#EF2734"/>
        <stop  offset="0.1454" style="stop-color:#EF3031"/>
        <stop  offset="0.3872" style="stop-color:#F14A29"/>
        <stop  offset="0.6937" style="stop-color:#F3731C"/>
        <stop  offset="1" style="stop-color:#F5A30D"/>
      </linearGradient>
      <path style="fill:url(#lg5);" d="M231.5,44.6h-30.8V2h30.2v11h-16.3v4.6
        H230v10.9h-15.4v4.9h17L231.5,44.6L231.5,44.6z"/>
      <linearGradient id="lg6" gradientUnits="userSpaceOnUse" x1="93.1471" y1="119.0099" x2="425.9072" y2="18.8874" gradientTransform="matrix(1 0 0 -1 0 93.3199)">
        <stop  offset="0" style="stop-color:#EF2734"/>
        <stop  offset="0.1454" style="stop-color:#EF3031"/>
        <stop  offset="0.3872" style="stop-color:#F14A29"/>
        <stop  offset="0.6937" style="stop-color:#F3731C"/>
        <stop  offset="1" style="stop-color:#F5A30D"/>
      </linearGradient>
      <path style="fill:url(#lg6);" d="M271.1,39.9c-1.5,1.5-5.9,5.4-15.1,5.4
        c-12.6,0-22.8-7.8-22.8-22s10.2-22,22.8-22c9.6,0,14.2,4,14.2,4l-3.7,11.7c0,0-4.3-3.7-9.6-3.7s-9.7,3.1-9.7,9.8
        c0,6.6,4.8,9.6,9.7,9.6s8.3-2,10.2-3.9L271.1,39.9z"/>
      <linearGradient id="lg7" gradientUnits="userSpaceOnUse" x1="96.1171" y1="128.8807" x2="428.8772" y2="28.7582" gradientTransform="matrix(1 0 0 -1 0 93.3199)">
        <stop  offset="0" style="stop-color:#EF2734"/>
        <stop  offset="0.1454" style="stop-color:#EF3031"/>
        <stop  offset="0.3872" style="stop-color:#F14A29"/>
        <stop  offset="0.6937" style="stop-color:#F3731C"/>
        <stop  offset="1" style="stop-color:#F5A30D"/>
      </linearGradient>
      <path style="fill:url(#lg7);" d="M303.7,12.9h-10v31.7h-13.9V12.9h-10V2
        h34V12.9z"/>
      <linearGradient id="lg8" gradientUnits="userSpaceOnUse" x1="99.0644" y1="138.6761" x2="431.8245" y2="38.5536" gradientTransform="matrix(1 0 0 -1 0 93.3199)">
        <stop  offset="0" style="stop-color:#EF2734"/>
        <stop  offset="0.1454" style="stop-color:#EF3031"/>
        <stop  offset="0.3872" style="stop-color:#F14A29"/>
        <stop  offset="0.6937" style="stop-color:#F3731C"/>
        <stop  offset="1" style="stop-color:#F5A30D"/>
      </linearGradient>
      <path style="fill:url(#lg8);" d="M346.3,27.9c-3.1,2.5-7.2,3.4-11.8,3.4
        h-4.6v13.3H316V2h18.5c4.6,0,8.8,0.9,11.8,3.4s4.8,6.2,4.8,11.3C351.1,21.7,349.4,25.4,346.3,27.9z M335.5,13.3
        c-0.9-0.7-1.8-0.8-3.4-0.8h-2.3v8.3h2.3c1.5,0,2.5-0.1,3.4-0.7c1-0.7,1.5-1.7,1.5-3.4C337,15,336.4,13.9,335.5,13.3z"/>
      <linearGradient id="lg9" gradientUnits="userSpaceOnUse" x1="101.9063" y1="148.1211" x2="434.6664" y2="47.9986" gradientTransform="matrix(1 0 0 -1 0 93.3199)">
        <stop  offset="0" style="stop-color:#EF2734"/>
        <stop  offset="0.1454" style="stop-color:#EF3031"/>
        <stop  offset="0.3872" style="stop-color:#F14A29"/>
        <stop  offset="0.6937" style="stop-color:#F3731C"/>
        <stop  offset="1" style="stop-color:#F5A30D"/>
      </linearGradient>
      <path style="fill:url(#lg9);" d="M391.3,44.6h-15.1l-1.7-6h-12.2l-1.6,6
        h-14.5L361.1,2h15.4L391.3,44.6z M371.6,27.9l-3.2-11.4l-3.2,11.4H371.6z"/>
      <linearGradient id="lg10" gradientUnits="userSpaceOnUse" x1="105.055" y1="158.5862" x2="437.8152" y2="58.4637" gradientTransform="matrix(1 0 0 -1 0 93.3199)">
        <stop  offset="0" style="stop-color:#EF2734"/>
        <stop  offset="0.1454" style="stop-color:#EF3031"/>
        <stop  offset="0.3872" style="stop-color:#F14A29"/>
        <stop  offset="0.6937" style="stop-color:#F3731C"/>
        <stop  offset="1" style="stop-color:#F5A30D"/>
      </linearGradient>
      <path style="fill:url(#lg10);" d="M406.3,44.6h-13.9V2h13.9V44.6z"/>
      <linearGradient id="lg11" gradientUnits="userSpaceOnUse" x1="106.988" y1="165.0103" x2="439.7481" y2="64.8879" gradientTransform="matrix(1 0 0 -1 0 93.3199)">
        <stop  offset="0" style="stop-color:#EF2734"/>
        <stop  offset="0.1454" style="stop-color:#EF3031"/>
        <stop  offset="0.3872" style="stop-color:#F14A29"/>
        <stop  offset="0.6937" style="stop-color:#F3731C"/>
        <stop  offset="1" style="stop-color:#F5A30D"/>
      </linearGradient>
      <path style="fill:url(#lg11);" d="M449.6,44.6h-16l-6.8-14.2H425v14.2
        h-13.9V2h18.5c5.2,0,9.2,0.9,12.3,3.1s5.2,5.9,5.2,10.5c0,8.6-5.2,11.7-7.1,12.8L449.6,44.6z M431.5,13.3
        c-0.6-0.5-1.5-0.8-3.1-0.8h-3.5v7.4h3.5c1.5,0,2.5-0.3,3.1-0.7c0.7-0.5,1.5-1.1,1.5-3S432.2,13.7,431.5,13.3z"/>
    </g>
  </g>
</svg>
