<svg xmlns="http://www.w3.org/2000/svg" viewBox="0 0 968 309">
  <title>Genesis</title>
  <g transform="translate(0.000000,439.000000) scale(0.100000,-0.100000)">
    <path d="M4588,3795c-110-23-366-98-698-204l-145-46l-270,1c-283,2-692,18-2145,84c-1267,58-1185,56-1175,39c52-88,155-159,261-178
      c108-21,485-57,1709-166c341-31,701-64,800-75c518-57,625-107,772-359c148-255,218-358,339-495c149-169,420-374,657-496l107-55
      l107,55c234,120,508,327,657,496c121,137,191,240,339,495c147,252,254,302,772,359c99,11,459,44,800,75c1224,109,1601,145,1709,166
      c106,19,209,90,261,178c10,17,92,19-1175-39c-1175-53-1793-79-2100-86c-300-7-255-15-693,120c-390,121-508,148-657,152
      C4726,3819,4683,3815,4588,3795z M5062,3609c211-53,473-140,585-194c112-55,139-86,136-160c-3-120-157-471-281-644
      c-76-107-229-265-347-360c-95-77-310-219-343-228c-41-10-270,142-444,294c-177,155-311,330-414,540c-56,115-129,317-139,388
      c-13,86,49,140,245,216c167,65,509,162,680,193C4793,3663,4911,3647,5062,3609z"/>
    <path d="M4079,3197c-47-31-66-91-47-149c23-75,108-108,197-77c30,11,31,13,31,70v59h-45c-44,0-60-15-30-26c9-4,15-19,15-40
      c0-31-2-34-30-34c-71,0-106,94-59,155c19,23,28,26,63,23c23-3,49-8,59-12c14-7,17-3,17,17c0,28-20,37-91,37
      C4128,3220,4102,3213,4079,3197z"/>
    <path d="M4297,3213c-4-3-3-11,3-18c5-6,11-60,12-121l3-109l88-3c82-3,87-2,87,18c0,18-6,20-61,20h-60l3,38c3,37,3,37,51,40
      c33,2,47,7,47,18c0,10-13,14-50,14h-50v35v35h61c52,0,60,2,55,16c-3,9-6,18-6,20C4480,3223,4304,3220,4297,3213z"/>
    <path d="M4524,3208c-4-6-2-14,4-16c8-2,12-39,12-119c0-113,0-114,23-111c20,3,22,10,27,72l5,70l58-73c45-55,64-71,80-69
      c21,3,22,8,22,128c0,121-1,125-22,128s-22-1-25-77l-3-81l-63,80c-47,61-68,80-86,80C4542,3220,4528,3215,4524,3208z"/>
    <path d="M4800,3206c0-8,5-18,10-21c6-4,10-53,10-116v-109h85c78,0,85,2,85,20s-7,20-55,20h-55v40v40h50c38,0,50,4,50,15
      s-12,15-50,15h-50v35v35h56c47,0,55,3,52,18c-3,14-17,17-96,20C4816,3220,4800,3218,4800,3206z"/>
    <path d="M5062,3210c-12-5-27-21-32-36c-15-39,7-74,65-106c58-31,67-61,22-66c-16-2-42,1-58,7c-29,10-30,9-27-17s6-27,64-30
      c49-2,65,1,87,18c51,40,33,97-43,135c-36,18-50,31-50,47c0,19,4,20,55,15c49-5,55-3,55,13c0,10-7,21-16,24
      C5161,3223,5089,3220,5062,3210z"/>
    <path d="M5244,3208c-4-6-2-14,4-16c8-2,12-39,12-118v-114h30h30v130v130h-34C5267,3220,5248,3215,5244,3208z"/>
    <path d="M5409,3205c-58-32-41-94,36-134c34-18,50-33,50-46c0-24-41-32-86-16c-29,10-30,9-27-17s6-27,64-30c76-4,114,21,114,72
      c0,36-13,51-77,86c-28,15-43,31-43,43c0,18,5,19,55,14c49-5,55-3,55,13c0,10-7,21-16,24C5506,3225,5436,3220,5409,3205z"/>
    <path d="M442,3362c2-5,37-39,78-77c296-270,512-352,1060-399c250-22,591-43,1005-61c198-9,384-21,414-27c37-7,64-20,90-43
      c20-18,33-36,30-39c-6-6-727,6-1134,19c-128,4-187,3-180-4c23-23,523-163,799-224l141-31l390-1c423-1,420-1,474-58l23-25l-43-6
      c-49-6-324-26-360-26c-14,0-19-4-13-9c11-12,366-109,524-145c147-32,400-79,405-74c2,2-21,24-52,48c-129,103-275,280-464,560
      c-98,146-198,255-267,293c-93,50-304,87-752,132c-1162,114-2112,205-2155,205C446,3370,440,3366,442,3362z"/>
    <path d="M8730,3334c-195-18-587-56-870-84s-652-64-820-81c-497-48-706-84-802-136c-69-38-169-147-267-293c-189-280-335-457-464-560
      c-31-24-54-46-52-48c5-5,258,42,405,74c158,36,513,133,524,145c6,5,1,9-13,9c-36,0-311,20-360,26l-43,6l23,25c54,57,51,57,474,58
      l390,1l141,31c275,61,776,201,799,224c7,7-51,8-175,4c-392-12-1133-25-1139-19c-3,3,10,21,30,39c26,23,53,36,90,43
      c30,6,216,18,414,27c414,18,754,39,1005,61c547,47,764,129,1060,399c41,38,77,72,78,77C9163,3374,9120,3371,8730,3334z"/>
  </g>
</svg>
