<?xml version="1.0" encoding="UTF-8"?>
<!DOCTYPE svg PUBLIC "-//W3C//DTD SVG 1.1//EN" "http://www.w3.org/Graphics/SVG/1.1/DTD/svg11.dtd">
<svg xmlns="http://www.w3.org/2000/svg" version="1.1" viewBox="0 0 611 89" style="shape-rendering:geometricPrecision; text-rendering:geometricPrecision; image-rendering:optimizeQuality; fill-rule:evenodd; clip-rule:evenodd" xmlns:xlink="http://www.w3.org/1999/xlink">
    <title>Golf TV</title>
    <g><path style="opacity:0.957" fill="#00340c" d="M 35.5,-0.5 C 42.8333,-0.5 50.1667,-0.5 57.5,-0.5C 66.141,1.73786 73.9743,5.73786 81,11.5C 81.6667,12.5 81.6667,13.5 81,14.5C 77.1447,19.3528 72.978,23.8528 68.5,28C 63.0599,29.1737 58.0599,28.1737 53.5,25C 36,23.8333 27.8333,32 29,49.5C 33.626,61.3958 41.7927,65.5625 53.5,62C 57.5998,57.0276 57.4331,52.1942 53,47.5C 51.9019,43.4948 52.7352,39.9948 55.5,37C 65.0607,35.5525 74.7274,35.0525 84.5,35.5C 84.6666,49.1707 84.4999,62.8374 84,76.5C 76.2453,82.2964 67.7453,86.2964 58.5,88.5C 50.8333,88.5 43.1667,88.5 35.5,88.5C 16.6098,83.9434 4.60981,72.2767 -0.5,53.5C -0.5,46.8333 -0.5,40.1667 -0.5,33.5C 5.34384,15.6564 17.3438,4.32302 35.5,-0.5 Z"/></g>
    <g><path style="opacity:0.955" fill="#00340d" d="M 122.5,-0.5 C 129.167,-0.5 135.833,-0.5 142.5,-0.5C 160.567,4.56811 171.901,16.2348 176.5,34.5C 167.838,30.8879 158.838,29.7213 149.5,31C 148.058,31.3768 147.058,32.2101 146.5,33.5C 137.327,24.2475 128.161,24.2475 119,33.5C 114.511,40.4107 114.345,47.4107 118.5,54.5C 112.779,63.7049 111.113,73.7049 113.5,84.5C 97.0827,76.2009 88.416,62.7009 87.5,44C 89.4084,21.2808 101.075,6.44748 122.5,-0.5 Z"/></g>
    <g><path style="opacity:0.522" fill="#090404" d="M 510.5,-0.5 C 511.5,-0.5 512.5,-0.5 513.5,-0.5C 513.5,29.1667 513.5,58.8333 513.5,88.5C 512.5,88.5 511.5,88.5 510.5,88.5C 510.5,58.8333 510.5,29.1667 510.5,-0.5 Z"/></g>
    <g><path style="opacity:0.812" fill="#013e7e" d="M 547.5,-0.5 C 564.833,-0.5 582.167,-0.5 599.5,-0.5C 602.557,1.39512 604.723,4.06178 606,7.5C 606.805,32.8635 606.639,58.1968 605.5,83.5C 603.475,85.1964 601.475,86.863 599.5,88.5C 582.167,88.5 564.833,88.5 547.5,88.5C 544.039,86.5246 541.873,83.5246 541,79.5C 540.333,55.5 540.333,31.5 541,7.5C 542.277,4.06178 544.443,1.39512 547.5,-0.5 Z"/></g>
    <g><path style="opacity:0.967" fill="#00340c" d="M 180.5,1.5 C 188.507,1.33362 196.507,1.50029 204.5,2C 206,3.5 207.5,5 209,6.5C 209.5,24.8303 209.667,43.1636 209.5,61.5C 222.833,61.5 236.167,61.5 249.5,61.5C 249.5,69.8333 249.5,78.1667 249.5,86.5C 228.497,86.6666 207.497,86.5 186.5,86C 184.714,85.2155 183.214,84.0488 182,82.5C 180.526,55.5641 180.026,28.5641 180.5,1.5 Z"/></g>
    <g><path style="opacity:0.967" fill="#00340c" d="M 258.5,1.5 C 276.833,1.5 295.167,1.5 313.5,1.5C 313.5,9.83333 313.5,18.1667 313.5,26.5C 302.833,26.5 292.167,26.5 281.5,26.5C 281.5,29.8333 281.5,33.1667 281.5,36.5C 286.833,36.5 292.167,36.5 297.5,36.5C 297.5,44.1667 297.5,51.8333 297.5,59.5C 292.167,59.5 286.833,59.5 281.5,59.5C 281.5,68.5 281.5,77.5 281.5,86.5C 271.833,86.5 262.167,86.5 252.5,86.5C 252.333,60.4979 252.5,34.4979 253,8.5C 253.938,5.40247 255.772,3.06914 258.5,1.5 Z"/></g>
    <g><path style="opacity:0.964" fill="#090404" d="M 316.5,1.5 C 349.168,1.33335 381.835,1.50002 414.5,2C 417,3.16667 418.833,5 420,7.5C 424.01,20.3656 428.51,33.0323 433.5,45.5C 438.285,33.315 442.785,20.9816 447,8.5C 447.792,6.41267 448.959,4.57934 450.5,3C 455.893,1.88018 461.393,1.38018 467,1.5C 471.833,1.83333 476.667,2.16667 481.5,2.5C 470.627,29.9539 459.46,57.2873 448,84.5C 446.581,85.4601 445.081,86.2935 443.5,87C 435.5,87.6667 427.5,87.6667 419.5,87C 411.338,67.1836 403.171,47.3503 395,27.5C 386.919,26.5175 378.752,26.1842 370.5,26.5C 370.5,46.5 370.5,66.5 370.5,86.5C 360.833,86.5 351.167,86.5 341.5,86.5C 341.5,66.5 341.5,46.5 341.5,26.5C 333.167,26.5 324.833,26.5 316.5,26.5C 316.5,18.1667 316.5,9.83333 316.5,1.5 Z"/></g>
    <g><path style="opacity:1" fill="#06407f" d="M 601.5,8.5 C 601.5,32.1667 601.5,55.8333 601.5,79.5C 599.18,84.7469 595.847,85.5802 591.5,82C 593.241,69.0218 592.241,56.1885 588.5,43.5C 592.169,36.3201 595.169,28.8201 597.5,21C 596.911,18.367 595.244,17.2003 592.5,17.5C 594.518,25.3618 591.352,30.0284 583,31.5C 581.581,29.5781 579.747,28.2448 577.5,27.5C 572.584,29.6868 572.251,32.5201 576.5,36C 576.167,37 575.833,38 575.5,39C 577.2,42.2324 579.034,45.399 581,48.5C 581.039,54.2446 582.539,59.5779 585.5,64.5C 580.651,69.1799 575.484,73.5132 570,77.5C 568.798,79.6775 568.298,82.0108 568.5,84.5C 562.158,84.6662 555.825,84.4995 549.5,84C 547.356,83.2079 546.023,81.7079 545.5,79.5C 545.019,54.7436 545.519,30.0769 547,5.5C 547.75,4.87424 548.584,4.37424 549.5,4C 565.5,3.33333 581.5,3.33333 597.5,4C 599.644,4.79208 600.977,6.29208 601.5,8.5 Z"/></g>
    <g><path style="opacity:1" fill="#dce3ed" d="M 576.5,7.5 C 575.244,7.90384 574.077,8.57051 573,9.5C 571.377,7.82593 571.877,6.49259 574.5,5.5C 575.522,5.85549 576.189,6.52216 576.5,7.5 Z"/></g>
    <g><path style="opacity:1" fill="#96afc9" d="M 576.5,7.5 C 578.027,7.42702 579.027,8.09368 579.5,9.5C 577.973,9.57298 576.973,8.90632 576.5,7.5 Z"/></g>
    <g><path style="opacity:1" fill="#9eb5cd" d="M 579.5,9.5 C 581.674,9.74973 583.341,10.7497 584.5,12.5C 582.326,12.2503 580.659,11.2503 579.5,9.5 Z"/></g>
    <g><path style="opacity:1" fill="#a1b7cf" d="M 602.5,7.5 C 602.5,8.16667 602.167,8.5 601.5,8.5C 600.977,6.29208 599.644,4.79208 597.5,4C 581.5,3.33333 565.5,3.33333 549.5,4C 548.584,4.37424 547.75,4.87424 547,5.5C 545.519,30.0769 545.019,54.7436 545.5,79.5C 545.167,79.5 544.833,79.5 544.5,79.5C 543.337,55.6702 543.17,31.6702 544,7.5C 545.167,5 547,3.16667 549.5,2C 565.167,1.33333 580.833,1.33333 596.5,2C 599.641,2.71461 601.641,4.54795 602.5,7.5 Z"/></g>
    <g><path style="opacity:1" fill="#a4bad0" d="M 602.5,7.5 C 603.833,31.8333 603.833,56.1667 602.5,80.5C 602.5,79.8333 602.167,79.5 601.5,79.5C 601.5,55.8333 601.5,32.1667 601.5,8.5C 602.167,8.5 602.5,8.16667 602.5,7.5 Z"/></g>
    <g><path style="opacity:1" fill="#88a0c0" d="M 557.5,14.5 C 556.238,17.0708 554.905,17.0708 553.5,14.5C 552.83,16.2914 552.163,17.9581 551.5,19.5C 551.5,17.5 551.5,15.5 551.5,13.5C 553.735,13.2053 555.735,13.5386 557.5,14.5 Z"/></g>
    <g><path style="opacity:1" fill="#dfe6ee" d="M 566.5,13.5 C 566.631,14.2389 566.464,14.9056 566,15.5C 564.989,14.6634 563.822,14.33 562.5,14.5C 562.795,16.7354 562.461,18.7354 561.5,20.5C 559.623,19.3409 559.123,17.6742 560,15.5C 561.789,13.771 563.956,13.1043 566.5,13.5 Z"/></g>
    <g><path style="opacity:1" fill="#acbfd4" d="M 584.5,12.5 C 587.704,13.3833 590.371,15.0499 592.5,17.5C 589.296,16.6167 586.629,14.9501 584.5,12.5 Z"/></g>
    <g><path style="opacity:1" fill="#e7edf3" d="M 557.5,14.5 C 558.404,15.209 558.737,16.209 558.5,17.5C 556.517,17.1568 555.183,17.8235 554.5,19.5C 553.5,20.8333 552.5,20.8333 551.5,19.5C 552.163,17.9581 552.83,16.2914 553.5,14.5C 554.905,17.0708 556.238,17.0708 557.5,14.5 Z"/></g>
    <g><path style="opacity:1" fill="#e2e8f0" d="M 576.5,19.5 C 576.265,20.0967 575.765,20.4301 575,20.5C 573.523,19.556 572.523,18.2226 572,16.5C 571.417,18.0016 570.584,19.3349 569.5,20.5C 568.893,20.3764 568.56,20.0431 568.5,19.5C 569.81,17.5654 571.143,15.5654 572.5,13.5C 574.017,15.3965 575.35,17.3965 576.5,19.5 Z"/></g>
    <g><path style="opacity:1" fill="#eaeef4" d="M 592.5,17.5 C 595.244,17.2003 596.911,18.367 597.5,21C 595.169,28.8201 592.169,36.3201 588.5,43.5C 592.241,56.1885 593.241,69.0218 591.5,82C 595.847,85.5802 599.18,84.7469 601.5,79.5C 602.167,79.5 602.5,79.8333 602.5,80.5C 601.641,83.4521 599.641,85.2854 596.5,86C 581.167,86.6667 565.833,86.6667 550.5,86C 546.911,85.2458 544.911,83.0791 544.5,79.5C 544.833,79.5 545.167,79.5 545.5,79.5C 546.023,81.7079 547.356,83.2079 549.5,84C 555.825,84.4995 562.158,84.6662 568.5,84.5C 568.298,82.0108 568.798,79.6775 570,77.5C 575.484,73.5132 580.651,69.1799 585.5,64.5C 582.539,59.5779 581.039,54.2446 581,48.5C 579.034,45.399 577.2,42.2324 575.5,39C 575.833,38 576.167,37 576.5,36C 572.251,32.5201 572.584,29.6868 577.5,27.5C 579.747,28.2448 581.581,29.5781 583,31.5C 591.352,30.0284 594.518,25.3618 592.5,17.5 Z"/></g>
    <g><path style="opacity:1" fill="#6b8fb4" d="M 551.5,19.5 C 552.5,20.8333 553.5,20.8333 554.5,19.5C 555.043,19.56 555.376,19.8933 555.5,20.5C 553.833,21.8333 552.167,21.8333 550.5,20.5C 550.624,19.8933 550.957,19.56 551.5,19.5 Z"/></g>
    <g><path style="opacity:1" fill="#6184ad" d="M 566.5,13.5 C 567.339,14.6412 568.006,15.9745 568.5,17.5C 568.376,18.1067 568.043,18.44 567.5,18.5C 567.5,19.1667 567.833,19.5 568.5,19.5C 568.56,20.0431 568.893,20.3764 569.5,20.5C 570.584,19.3349 571.417,18.0016 572,16.5C 572.523,18.2226 573.523,19.556 575,20.5C 575.765,20.4301 576.265,20.0967 576.5,19.5C 577.043,19.56 577.376,19.8933 577.5,20.5C 575.326,21.8932 573.493,21.5598 572,19.5C 570.475,20.7201 568.641,21.3868 566.5,21.5C 564.631,21.4932 562.964,21.1599 561.5,20.5C 562.461,18.7354 562.795,16.7354 562.5,14.5C 563.822,14.33 564.989,14.6634 566,15.5C 566.464,14.9056 566.631,14.2389 566.5,13.5 Z"/></g>
    <g><path style="opacity:1" fill="#eff3f7" d="M 567.5,18.5 C 565.694,21.3382 564.694,21.0048 564.5,17.5C 565.791,17.2627 566.791,17.596 567.5,18.5 Z"/></g>
    <g><path style="opacity:1" fill="#f04b50" d="M 551.5,24.5 C 556.167,24.5 560.833,24.5 565.5,24.5C 565.785,26.288 565.452,27.9547 564.5,29.5C 563.614,28.675 563.281,27.675 563.5,26.5C 562.5,26.5 561.5,26.5 560.5,26.5C 560.5,29.5 560.5,32.5 560.5,35.5C 561.294,36.84 559.294,37.0067 554.5,36C 555.416,35.7216 556.082,35.2216 556.5,34.5C 556.813,31.7531 556.48,29.0865 555.5,26.5C 554.281,27.2634 553.281,28.2634 552.5,29.5C 551.548,27.9547 551.215,26.288 551.5,24.5 Z"/></g>
    <g><path style="opacity:1" fill="#eed0d5" d="M 551.5,24.5 C 551.5,24.1667 551.5,23.8333 551.5,23.5C 556.5,23.5 561.5,23.5 566.5,23.5C 566.5,25.8333 566.5,28.1667 566.5,30.5C 565.167,30.5 563.833,30.5 562.5,30.5C 562.649,29.448 562.483,28.448 562,27.5C 561.503,29.8098 561.337,32.1432 561.5,34.5C 562.5,34.5 563.5,34.5 564.5,34.5C 564.474,37.8757 565.141,41.0423 566.5,44C 566.486,45.3847 566.152,46.5514 565.5,47.5C 565.226,38.4278 561.06,36.0945 553,40.5C 552.503,43.146 552.336,45.8127 552.5,48.5C 551.191,47.376 550.525,45.876 550.5,44C 551.812,40.8843 552.812,37.7176 553.5,34.5C 554.5,34.5 555.5,34.5 556.5,34.5C 556.082,35.2216 555.416,35.7216 554.5,36C 559.294,37.0067 561.294,36.84 560.5,35.5C 560.5,32.5 560.5,29.5 560.5,26.5C 561.5,26.5 562.5,26.5 563.5,26.5C 563.281,27.675 563.614,28.675 564.5,29.5C 565.452,27.9547 565.785,26.288 565.5,24.5C 560.833,24.5 556.167,24.5 551.5,24.5 Z"/></g>
    <g><path style="opacity:1" fill="#b1bfd3" d="M 551.5,23.5 C 551.5,23.8333 551.5,24.1667 551.5,24.5C 551.215,26.288 551.548,27.9547 552.5,29.5C 553.281,28.2634 554.281,27.2634 555.5,26.5C 556.48,29.0865 556.813,31.7531 556.5,34.5C 555.5,34.5 554.5,34.5 553.5,34.5C 555.243,32.8739 555.743,30.8739 555,28.5C 553.951,30.1066 552.451,30.7733 550.5,30.5C 550.198,27.9407 550.532,25.6074 551.5,23.5 Z"/></g>
    <g><path style="opacity:1" fill="#278849" d="M 176.5,34.5 C 179.827,61.8655 168.493,79.8655 142.5,88.5C 135.833,88.5 129.167,88.5 122.5,88.5C 119.392,87.4469 116.392,86.1136 113.5,84.5C 111.113,73.7049 112.779,63.7049 118.5,54.5C 120.167,55.5 121.5,56.8333 122.5,58.5C 128.842,68.7109 137.509,71.2109 148.5,66C 155.553,59.8625 157.386,52.3625 154,43.5C 152.669,41.0038 150.836,39.0038 148.5,37.5C 147.833,36.1667 147.167,34.8333 146.5,33.5C 147.058,32.2101 148.058,31.3768 149.5,31C 158.838,29.7213 167.838,30.8879 176.5,34.5 Z"/></g>
    <g><path style="opacity:1" fill="#376498" d="M 585.5,34.5 C 588.001,34.5109 588.168,35.1776 586,36.5C 585.536,35.9056 585.369,35.2389 585.5,34.5 Z"/></g>
    <g><path style="opacity:0.911" fill="#00350e" d="M 148.5,37.5 C 150.836,39.0038 152.669,41.0038 154,43.5C 157.386,52.3625 155.553,59.8625 148.5,66C 137.509,71.2109 128.842,68.7109 122.5,58.5C 134.668,63.9445 143.501,60.6112 149,48.5C 149.678,44.7789 149.511,41.1122 148.5,37.5 Z"/></g>
    <g><path style="opacity:1" fill="#ef474d" d="M 565.5,47.5 C 561.979,50.6094 557.979,51.2761 553.5,49.5C 553.5,48.8333 553.167,48.5 552.5,48.5C 552.336,45.8127 552.503,43.146 553,40.5C 561.06,36.0945 565.226,38.4278 565.5,47.5 Z"/></g>
    <g><path style="opacity:1" fill="#f6c2c5" d="M 557.5,40.5 C 558.947,39.1148 559.947,39.4482 560.5,41.5C 559.609,40.8902 558.609,40.5569 557.5,40.5 Z"/></g>
    <g><path style="opacity:1" fill="#27518b" d="M 557.5,40.5 C 558.609,40.5569 559.609,40.8902 560.5,41.5C 560.949,43.9775 560.283,45.9775 558.5,47.5C 557.526,45.2573 557.192,42.924 557.5,40.5 Z"/></g>
    <g><path style="opacity:1" fill="#e0d2da" d="M 557.5,40.5 C 557.192,42.924 557.526,45.2573 558.5,47.5C 560.283,45.9775 560.949,43.9775 560.5,41.5C 561.622,43.2884 561.789,45.2884 561,47.5C 559.644,48.3802 558.144,48.7135 556.5,48.5C 556.194,45.6146 556.527,42.9479 557.5,40.5 Z"/></g>
    <g><path style="opacity:1" fill="#88a4c2" d="M 552.5,48.5 C 553.167,48.5 553.5,48.8333 553.5,49.5C 553.096,50.7564 552.429,51.9231 551.5,53C 551.57,53.7648 551.903,54.2648 552.5,54.5C 552.5,54.8333 552.5,55.1667 552.5,55.5C 551.351,55.2089 550.684,54.3756 550.5,53C 551.074,51.3933 551.74,49.8933 552.5,48.5 Z"/></g>
    <g><path style="opacity:1" fill="#ecc3c8" d="M 565.5,47.5 C 565.586,48.4959 565.252,49.3292 564.5,50C 565.578,50.6739 566.245,51.6739 566.5,53C 565.877,56.4813 565.377,59.9813 565,63.5C 563.272,64.3523 563.105,65.3523 564.5,66.5C 563.833,66.5 563.167,66.5 562.5,66.5C 562.167,65.8333 561.833,65.1667 561.5,64.5C 562.458,64.0472 563.292,63.3805 564,62.5C 564.212,59.2423 564.712,56.0757 565.5,53C 563.833,52.3333 562.167,52.3333 560.5,53C 561.056,53.3826 561.389,53.8826 561.5,54.5C 560.167,54.5 558.833,54.5 557.5,54.5C 558.643,52.8993 557.976,52.2326 555.5,52.5C 553.024,52.2326 552.357,52.8993 553.5,54.5C 553.167,54.5 552.833,54.5 552.5,54.5C 551.903,54.2648 551.57,53.7648 551.5,53C 552.429,51.9231 553.096,50.7564 553.5,49.5C 557.979,51.2761 561.979,50.6094 565.5,47.5 Z"/></g>
    <g><path style="opacity:1" fill="#f15559" d="M 557.5,54.5 C 557.5,57.1667 557.5,59.8333 557.5,62.5C 558.833,62.5 560.167,62.5 561.5,62.5C 561.5,59.8333 561.5,57.1667 561.5,54.5C 561.389,53.8826 561.056,53.3826 560.5,53C 562.167,52.3333 563.833,52.3333 565.5,53C 564.712,56.0757 564.212,59.2423 564,62.5C 563.292,63.3805 562.458,64.0472 561.5,64.5C 559.833,64.5 558.167,64.5 556.5,64.5C 555.542,64.0472 554.708,63.3805 554,62.5C 553.503,59.854 553.336,57.1873 553.5,54.5C 552.357,52.8993 553.024,52.2326 555.5,52.5C 557.976,52.2326 558.643,52.8993 557.5,54.5 Z"/></g>
    <g><path style="opacity:1" fill="#a4b9d1" d="M 557.5,54.5 C 558.833,54.5 560.167,54.5 561.5,54.5C 561.5,57.1667 561.5,59.8333 561.5,62.5C 560.167,62.5 558.833,62.5 557.5,62.5C 557.5,59.8333 557.5,57.1667 557.5,54.5 Z"/></g>
    <g><path style="opacity:1" fill="#003d7e" d="M 558.5,55.5 C 559.693,55.9704 560.36,56.9704 560.5,58.5C 560.167,59.5 559.833,60.5 559.5,61.5C 558.534,59.604 558.201,57.604 558.5,55.5 Z"/></g>
    <g><path style="opacity:1" fill="#f6a2a6" d="M 556.5,64.5 C 558.167,64.5 559.833,64.5 561.5,64.5C 561.833,65.1667 562.167,65.8333 562.5,66.5C 559.15,66.335 555.817,66.5017 552.5,67C 553.056,67.3826 553.389,67.8826 553.5,68.5C 551.952,68.1788 551.285,67.1788 551.5,65.5C 553.415,65.7845 555.081,65.4511 556.5,64.5 Z"/></g>
    <g><path style="opacity:1" fill="#f04c51" d="M 562.5,66.5 C 563.167,66.5 563.833,66.5 564.5,66.5C 563.061,70.3526 563.394,74.0193 565.5,77.5C 561.566,79.2424 559.899,77.909 560.5,73.5C 559.5,73.5 558.5,73.5 557.5,73.5C 557.48,75.143 558.147,76.4763 559.5,77.5C 557.235,78.6474 554.902,78.8141 552.5,78C 553.056,77.6174 553.389,77.1174 553.5,76.5C 553.5,73.8333 553.5,71.1667 553.5,68.5C 553.389,67.8826 553.056,67.3826 552.5,67C 555.817,66.5017 559.15,66.335 562.5,66.5 Z"/></g>
    <g><path style="opacity:1" fill="#f3d7da" d="M 560.5,70.5 C 559.791,71.404 558.791,71.7373 557.5,71.5C 557.5,70.1667 557.5,68.8333 557.5,67.5C 558.833,67.5 560.167,67.5 561.5,67.5C 561.737,68.791 561.404,69.791 560.5,70.5 Z"/></g>
    <g><path style="opacity:1" fill="#d1dae5" d="M 552.5,54.5 C 552.833,54.5 553.167,54.5 553.5,54.5C 553.336,57.1873 553.503,59.854 554,62.5C 554.708,63.3805 555.542,64.0472 556.5,64.5C 555.081,65.4511 553.415,65.7845 551.5,65.5C 551.285,67.1788 551.952,68.1788 553.5,68.5C 553.5,71.1667 553.5,73.8333 553.5,76.5C 553.167,76.5 552.833,76.5 552.5,76.5C 552.5,76.1667 552.5,75.8333 552.5,75.5C 552.039,71.7878 551.373,68.1211 550.5,64.5C 551.552,64.6495 552.552,64.4828 553.5,64C 552.556,61.2809 552.223,58.4475 552.5,55.5C 552.5,55.1667 552.5,54.8333 552.5,54.5 Z"/></g>
    <g><path style="opacity:1" fill="#4570a0" d="M 560.5,70.5 C 558.663,70.3605 558.33,69.6939 559.5,68.5C 560.298,68.9569 560.631,69.6236 560.5,70.5 Z"/></g>
    <g><path style="opacity:1" fill="#124583" d="M 585.5,72.5 C 586.483,76.2984 586.817,80.2984 586.5,84.5C 581.125,84.8282 575.792,84.4948 570.5,83.5C 572.267,79.8098 574.934,78.3098 578.5,79C 580.907,76.8169 583.24,74.6503 585.5,72.5 Z"/></g>
    <g><path style="opacity:1" fill="#e5c1c9" d="M 564.5,66.5 C 565.167,69.5 565.833,72.5 566.5,75.5C 566.5,76.8333 566.5,78.1667 566.5,79.5C 565.167,79.5 563.833,79.5 562.5,79.5C 561.833,79.5 561.167,79.5 560.5,79.5C 557.5,79.5 554.5,79.5 551.5,79.5C 551.263,78.209 551.596,77.209 552.5,76.5C 552.833,76.5 553.167,76.5 553.5,76.5C 553.389,77.1174 553.056,77.6174 552.5,78C 554.902,78.8141 557.235,78.6474 559.5,77.5C 558.147,76.4763 557.48,75.143 557.5,73.5C 558.5,73.5 559.5,73.5 560.5,73.5C 559.899,77.909 561.566,79.2424 565.5,77.5C 563.394,74.0193 563.061,70.3526 564.5,66.5 Z"/></g>
    <g><path style="opacity:1" fill="#6b8eb4" d="M 552.5,75.5 C 552.5,75.8333 552.5,76.1667 552.5,76.5C 551.596,77.209 551.263,78.209 551.5,79.5C 554.5,79.5 557.5,79.5 560.5,79.5C 557.375,80.4794 554.042,80.8128 550.5,80.5C 550.077,78.2188 550.744,76.5521 552.5,75.5 Z"/></g>
    <g><path style="opacity:1" fill="#7092b6" d="M 566.5,75.5 C 567.451,76.9187 567.784,78.5853 567.5,80.5C 565.585,80.7845 563.919,80.4511 562.5,79.5C 563.833,79.5 565.167,79.5 566.5,79.5C 566.5,78.1667 566.5,76.8333 566.5,75.5 Z"/></g>
    <g><path style="opacity:0.347" fill="#003d7e" d="M 605.5,83.5 C 607.167,83.5 608.833,83.5 610.5,83.5C 610.5,85.1667 610.5,86.8333 610.5,88.5C 608.833,88.5 607.167,88.5 605.5,88.5C 605.5,86.8333 605.5,85.1667 605.5,83.5 Z"/></g>
</svg>
