<?xml version="1.0" encoding="UTF-8" standalone="no"?>

<svg
   version="1.1"
   id="svg2"
   xml:space="preserve"
   width="45%"
   viewBox="0 0 814.828 118.38436"
   sodipodi:docname="69957895a93ea2858cedec1087331a65.eps"
   xmlns:inkscape="http://www.inkscape.org/namespaces/inkscape"
   xmlns:sodipodi="http://sodipodi.sourceforge.net/DTD/sodipodi-0.dtd"
   xmlns="http://www.w3.org/2000/svg"
   xmlns:svg="http://www.w3.org/2000/svg"><defs
     id="defs6" /><sodipodi:namedview
     id="namedview4"
     pagecolor="#ffffff"
     bordercolor="#666666"
     borderopacity="1.0"
     inkscape:pageshadow="2"
     inkscape:pageopacity="0.0"
     inkscape:pagecheckerboard="0" /><g
     id="g8"
     inkscape:groupmode="layer"
     inkscape:label="ink_ext_XXXXXX"
     transform="matrix(1.3333333,0,0,-1.3333333,0,118.38384)"><g
       id="g10"
       transform="scale(0.1)"><path
         d="m 1816.53,865.824 h 186.18 c 53.03,0 96.02,-42.976 96.02,-96.004 V 262.855 h 396.75 V 21.6641 h -582.44 c -53.3,0 -96.51,43.2148 -96.51,96.5039 v 747.656"
         style="fill:#1c2b1a;fill-opacity:1;fill-rule:nonzero;stroke:none"
         id="path12" /><path
         d="m 2818.71,624.645 h 315.36 l 0.02,241.179 h -501.14 c -53.25,0 -96.43,-43.164 -96.43,-96.414 V 21.6641 h 282.19 V 297.828 h 160.2 v 219.473 h -160.2 v 107.344"
         style="fill:#1c2b1a;fill-opacity:1;fill-rule:nonzero;stroke:none"
         id="path14" /><path
         d="M 819.578,758.805 C 728.473,837.945 612.172,888.383 468.309,887.875 193.629,886.918 0,689.691 0,446.734 0,235.141 143.758,58.4414 334.949,16.1484 363.305,9.86719 634.613,-54.4766 847.152,133.258 v 390.781 h -234.98 c -42.703,0 -77.363,-34.66 -77.363,-77.394 0,-20.137 7.691,-38.477 20.257,-52.176 15.016,-16.485 24.18,-38.469 24.18,-62.61 0,-51.433 -41.683,-93.132 -93.269,-93.113 -112.664,0.008 -203.879,91.231 -203.879,203.758 0,112.531 91.215,203.742 203.754,203.742 40.507,0 78.269,-11.828 110.07,-32.277 14.125,-9.102 30.863,-14.344 48.816,-14.344 28.453,0 53.414,12.012 69.938,32.598 12.375,15.429 104.594,126.836 104.594,126.836"
         style="fill:#1c2b1a;fill-opacity:1;fill-rule:nonzero;stroke:none"
         id="path16" /><path
         d="m 1331.84,266.605 c -97.83,0 -177.13,79.309 -177.13,177.141 0,97.832 79.3,177.137 177.13,177.137 97.83,0 177.14,-79.305 177.14,-177.137 0,-97.832 -79.31,-177.141 -177.14,-177.141 z m 0,620.852 c -245.05,0 -443.707,-198.652 -443.707,-443.711 0,-245.051 198.657,-443.7030312 443.707,-443.7030312 245.05,0 443.71,198.6520312 443.71,443.7030312 0,245.059 -198.66,443.711 -443.71,443.711"
         style="fill:#1c2b1a;fill-opacity:1;fill-rule:nonzero;stroke:none"
         id="path18" /><path
         d="m 1775.8,443.707 c 0,31.231 -3.26,61.699 -9.4,91.102 -59.1,27.714 -122.41,41.796 -188.28,41.796 -38.98,0 -77.93,-5.292 -113.99,-14.765 -0.03,-0.059 0.03,0.058 0,0 12.18,-13.613 22.33,-29.246 29.87,-46.152 0.03,-0.008 0,0 0,0 5.81,-5.34 11.7,-11.114 17.02,-17.227 70.43,-80.742 68.51,-197.676 -4.29,-261.18 -72.81,-63.496 -188.92,-49.523 -259.35,31.231 -9.76,11.191 -18.87,24.472 -25.89,36.883 0.01,0.019 0,-0.028 0,0 -13.26,10.625 -24.99,23.136 -34.73,37.101 -0.02,-0.019 0.01,0.02 0,0 -33.24,-62.246 -52.91,-134.836 -52.91,-210.168 0,-30.32 3.09,-60.5936 9.15,-90.0585 57.37,-27.0703 121.45,-42.27340625 189.1,-42.27340625 245.05,0 443.7,198.65990625 443.7,443.71090625"
         style="fill:#328739;fill-opacity:1;fill-rule:nonzero;stroke:none"
         id="path20" /><path
         d="m 4817.51,865.824 h -243.6 c -41,0 -77.5,-25.984 -90.89,-64.726 l -141.61,-409.2 -141.57,409.094 c -13.43,38.809 -50,64.832 -91.05,64.832 H 3175.07 V 627.047 h 246.89 V 21.6641 h 282.19 V 627.047 h 252.73 L 4203.93,15.6289 h 205.21 c 39.23,0 74.52,23.8399 89.19,60.2344 l 319.18,789.9607"
         style="fill:#100f0d;fill-opacity:1;fill-rule:nonzero;stroke:none"
         id="path22" /><path
         d="m 5419.2,111.07 c 0,-61.2106 49.47,-110.831719 110.48,-110.831719 h 424.1 c 61.01,0 110.46,49.621119 110.46,110.831719 v 667.274 c 0,61.203 -49.45,110.82 -110.46,109.289 h -424.1 C 5468.67,889.164 5419.2,839.547 5419.2,778.344 V 111.07"
         style="fill:#223a6e;fill-opacity:1;fill-rule:nonzero;stroke:none"
         id="path24" /><path
         d="m 5529.68,863.863 c -47.09,0 -85.25,-38.3 -85.25,-85.519 V 111.07 c 0,-47.2262 38.16,-85.5192 85.25,-85.5192 h 424.1 c 47.07,0 85.23,38.293 85.23,85.5192 v 667.274 c 0,47.219 -38.16,85.519 -85.23,85.519 h -424.1"
         style="fill:#ffffff;fill-opacity:1;fill-rule:nonzero;stroke:none"
         id="path26" /><path
         d="m 5529.16,850.863 c -39.92,0 -72.3,-32.468 -72.3,-72.519 V 111.07 c 0,-40.0387 32.38,-72.5309 72.3,-72.5309 h 424.1 c 39.91,0 72.3,32.4922 72.3,72.5309 v 667.274 c 0,40.051 -32.39,72.519 -72.3,72.519 h -424.1"
         style="fill:#223a6e;fill-opacity:1;fill-rule:nonzero;stroke:none"
         id="path28" /><path
         d="m 6087.27,25.2305 c 3.72,0 9.14,-0.625 9.14,4.6953 0,4.1015 -3.34,4.582 -6.55,4.582 h -7.46 v -9.2773 z m 12.28,-14.6094 h -3.82 l -7.47,12.0586 h -5.86 V 10.6211 h -3.21 v 26.1914 h 11.4 c 6.92,0 9.27,-2.6094 9.27,-6.9258 0,-5.1562 -3.58,-7.0781 -8.2,-7.207 z m 7.96,13.125 c 0,11.3867 -8.25,20.3125 -19.62,20.3125 -11.43,0 -19.76,-8.9258 -19.76,-20.3125 0,-11.5352 8.33,-20.44141 19.76,-20.44141 11.37,0 19.62,8.90621 19.62,20.44141 m -43.07,0 c 0,12.8711 10.49,23.4062 23.45,23.4062 12.9,0 23.32,-10.5351 23.32,-23.4062 0,-13.0195 -10.42,-23.52735 -23.32,-23.52735 -12.96,0 -23.45,10.50785 -23.45,23.52735"
         style="fill:#223a6e;fill-opacity:1;fill-rule:nonzero;stroke:none"
         id="path30" /><path
         d="m 5527.42,688.168 c 0,-2.676 -1.61,-4.277 -4.5,-4.277 h -7.05 v -9.434 h 45.53 v 9.434 h -7.74 c -2.89,0 -4.5,1.601 -4.5,4.277 v 16.926 h 12.7 c 21.26,0 32.46,5.586 32.46,20.261 0,14.68 -11.2,20.149 -30.16,20.149 h -48.4 v -9.445 h 7.16 c 2.89,0 4.5,-1.59 4.5,-4.266 z m 21.74,47.891 h 11.77 c 6.47,0 11.67,-4.161 11.67,-10.809 0,-6.641 -5.43,-10.715 -13.52,-10.715 h -9.92 v 21.524"
         style="fill:#ffffff;fill-opacity:1;fill-rule:nonzero;stroke:none"
         id="path32" /><path
         d="m 5686.29,702.523 h -5.31 c -2.9,0 -4.52,-1.601 -4.52,-4.277 v -24.637 h -10.05 l -2.54,5.243 c -6.69,-4.825 -15.27,-6.532 -22.76,-6.532 -24.04,0 -40.9,12.637 -40.9,36.641 0,24.219 16.3,38.691 40.9,38.691 6.7,0 15.03,-2.05 20.8,-7.187 l 2.32,5.996 h 10.39 l 0.03,-25.012 h -10.74 c -0.35,10.606 -7.2,16.223 -18.86,16.223 -13.41,0 -19.76,-9.211 -19.76,-27.746 0,-18.535 6.35,-27.43 19.76,-27.43 4.38,0 9.69,1.609 9.69,6.649 v 9.101 c 0,2.676 -1.62,4.277 -4.51,4.277 h -5.99 v 9.434 h 42.05 v -9.434"
         style="fill:#ffffff;fill-opacity:1;fill-rule:nonzero;stroke:none"
         id="path34" /><path
         d="m 5716.78,702.934 10.61,23.859 9.72,-23.859 z m 57.56,-20.34 c -7.75,1.297 -7.97,3.008 -10.89,9.441 l -22.81,52.707 h -17.41 l -21.8,-48.691 c -3.36,-7.129 -5.49,-12.668 -15.38,-13.574 v -8.223 h 34.72 v 8.223 l -1.14,0.117 c -2.7,0.39 -8.85,0.39 -8.85,3.914 0,1.289 0.76,3.32 1.33,4.609 l 1.36,3.36 h 27.44 l 1.54,-3.36 c 0.44,-1.394 1.55,-4.004 1.55,-5.418 0,-3.105 -6.94,-2.922 -9.31,-3.222 v -8.223 h 40.88 v 8.223 l -1.23,0.117"
         style="fill:#ffffff;fill-opacity:1;fill-rule:nonzero;stroke:none"
         id="path36" /><path
         d="m 5866.25,513.188 c -0.59,2.05 -4.52,12.238 -6.36,17.617 -0.23,0.722 32.13,21.953 32.13,21.953 0,0 0.42,-1.727 0.66,-3.828 0,0 -21.84,-32.774 -26.43,-35.742 m 107.33,132.531 c 10.97,11.152 11.23,37.957 11.23,37.957 -11.04,20.148 -34.16,26.191 -34.16,26.191 -5.16,3.672 -9.31,0.285 -10.98,-1.543 h -0.09 l -185.56,113.625 c -13.52,7.02 -32.19,-16.992 -36.88,-25.832 -1.89,-3.203 4.17,-7.91 8.27,-10.449 16.85,-11.063 24.91,17.316 31.08,27.355 l 179.5,-113.613 c -0.37,-0.129 0.58,-9.387 1.04,-9.785 -0.11,-14.785 11.69,-27.031 4.72,-48.43 -1.89,-29.961 -34.28,-35.957 -51.88,-54.578 -16.22,-15.929 -48.17,-13.926 -61.55,-27.012 -0.12,-0.117 -0.36,-0.363 -0.36,-0.363 0,0 -0.1,0.469 -0.13,0.559 -11.53,30.301 -18.39,32 -21.93,44.187 -14.15,5.344 -30.82,6.621 -44.35,-0.652 -12.95,-8.496 -19.47,-24.602 -17.27,-38.801 0.29,-14.5 20.74,-30.273 31.44,-36.57 -6.88,-10 -10.17,-22.188 -10.33,-27.277 -1.71,-21.493 15.28,-42.09 20.04,-50.594 20.1,-29.883 31.45,-53.614 35.89,-61.992 0.69,-1.614 1.76,-2.922 0.74,-5.137 -0.27,-0.578 -17.36,-30.578 10.86,-73.613 11.48,-22.141 27.97,-71.536 28.13,-71.809 6.57,-7.012 -8.91,-2.676 -10.48,-18.855 -11.08,-4.356 -94.98,-68.77 -113.85,-85.801 -7.53,-2.199 -17.3,-1.887 -20.44,-11.348 -0.48,-0.742 -3.41,-9.121 -5.23,-11.133 -8.07,-9.328 -17.5,-25.9177 -19.23,-42.1677 -1.86,-8.3203 0.23,-24.5235 9.9,-28.8281 4.37,-1.9454 6.21,-0.5586 7.37,0 1.27,0.6328 6.71,15.4375 7.41,17.1484 6.68,16.2773 16.48,20.6445 39.09,43.2031 11.32,-3.1367 16.27,-9.8437 27.9,-12.6875 31.46,29.2968 63.12,56.1528 94.03,86.2228 -4.72,-46.555 -9.13,-94.3556 -9.01,-107.1603 -2,-8.1523 -2.23,-22.1484 3.51,-29.0429 0,0 51.38,-3.0274 61.29,-2.293 4.92,0.3711 5.21,3.3086 5.21,3.3086 0,0 4.59,6.9453 -7.87,16.2226 -3.61,2.6836 -12.28,13.4766 -19,17.8907 8.87,2 18.2,3.5351 20.25,3.5351 -2.36,24.4612 -2.89,77.3442 -4.65,146.5122 -7.64,71.652 -8.29,95.781 -43.86,242.589 25.17,28.719 24.2,46.551 48.41,76.211 13.03,25.457 33.14,77.207 41.78,104.649"
         style="fill:#ffffff;fill-opacity:1;fill-rule:nonzero;stroke:none"
         id="path38" /><path
         d="m 5587.95,181.773 v 16.641 l 15.66,-0.012 c 4.46,0 7.69,-3.386 7.69,-8.047 0,-5.242 -4.02,-8.562 -7.59,-8.562 z m 2.54,-55.859 c -2.7,0 -2.77,2.461 -2.77,2.461 l -0.01,15.352 10.04,-0.012 c 3.11,0 4.66,-0.449 4.66,-3.965 0.04,-0.926 0.07,-7.344 0.07,-7.344 0,-1.961 -0.14,-4.461 -0.03,-6.492 z m 18.76,314.336 c 0,-24.082 -5.27,-36.301 -15.66,-36.301 -5.08,0 -15.66,0 -15.66,36.301 0,36.309 10.98,36.309 15.66,36.309 6.61,0 15.66,0 15.66,-36.309 m -18.96,-105.695 23.35,0.05 c 0,0 1.97,-0.109 1.97,-1.894 0,-1.777 -0.02,-52.922 -0.02,-60.879 0,-4.336 -3.77,-7.871 -13.3,-7.871 -9.53,0 -14.36,3.523 -14.36,7.852 v 60.847 c 0,1.594 2.36,1.895 2.36,1.895 m 73.62,-208.934 c -1.08,-0.019 -5.28,0.399 -5.19,5.078 l 0.03,4.883 c 0,7.527 -0.55,15.391 -4.2,22.43 -0.81,1.711 -1.86,3.176 -2.96,4.582 0.38,0.281 0.85,0.496 1.22,0.781 l 0.21,0.156 0.19,0.164 c 8.19,7.043 12.35,16.438 12.35,27.942 0,7.82 -1.96,15.945 -5.5,22.851 l -0.16,0.301 -0.16,0.293 c -5.11,8.547 -12.51,14.231 -22.37,17.238 13.43,7.957 20.25,21.485 20.25,40.567 v 61.668 h 16.07 l -0.24,40.363 -12.86,0.008 h -24.87 c 21.89,12.265 34.47,35.031 34.47,65.324 0,33.27 -14.24,53.738 -33.69,64.832 h 14.57 v 37.551 h -28.33 v 67.176 c 6.32,-0.301 10.67,-6.766 11.07,-16.766 0,-0.012 0.49,-12.422 0.49,-12.422 l 39,-0.137 v 69.911 h -10.48 -147.95 v -69.911 l 39.04,0.137 0.48,12.43 c 0.39,10 4.73,16.457 11.05,16.758 v -67.176 h -28.34 v -37.551 h 12.14 c -19.45,-11.094 -33.7,-31.562 -33.7,-64.832 0,-30.293 12.59,-53.059 34.48,-65.324 h -34.2 v -40.321 h 16.13 V 269 c 0,-12.375 5.69,-25.227 19.6,-34.035 l -36.21,0.051 -0.11,-39.758 c 0,0 11.97,-0.125 15.39,-0.059 -0.01,-0.437 2.71,-0.047 2.35,-2.84 -0.06,-11.144 -0.07,-51.125 -0.06,-63.546 0,-3.34 -2.36,-2.344 -2.36,-2.969 -3.27,0.07 -15.24,-0.039 -15.24,-0.039 l 0.03,-39.3753 h 96.14 c 0,0 0.01,11.457 0.01,11.582 7.43,-8.25 18.16,-12.4414 32.09,-12.4414 h 33.06 v 39.9217 l -12.73,0.129"
         style="fill:#ffffff;fill-opacity:1;fill-rule:nonzero;stroke:none"
         id="path40" /><path
         d="m 5660.37,639.887 h -135.04 v -48.856 l 18.51,0.059 0.08,2.363 c 0.75,18.633 11.55,26.973 21.94,26.973 6.77,0 10.06,-1.379 10.06,-4.231 v -75.496 c 0,-4.054 -2.65,-8.574 -6.44,-8.574 h -21.9 V 515.59 h 93.02 v 16.535 h -21.89 c -3.8,0 -6.44,4.52 -6.44,8.574 v 75.496 c 0,2.852 3.29,4.231 10.05,4.231 10.38,0 21.21,-8.34 21.96,-26.973 l 0.08,-2.363 18.46,-0.059 v 48.856 h -2.45"
         style="fill:#e81d24;fill-opacity:1;fill-rule:nonzero;stroke:none"
         id="path42" /><path
         d="m 5663.04,364.418 h -55.48 v -19.297 h 10.36 c 3.49,0 5.77,-0.586 6.94,-1.785 1.26,-1.289 1.31,-3.215 1.25,-6.223 0,-0.019 -0.02,-1.629 -0.02,-1.629 0,-0.039 -0.02,-67.031 -0.02,-67.031 -0.43,-3.242 -3.46,-14.855 -23.78,-14.855 -15.54,0 -24.83,5.988 -24.83,16.007 v 67.051 c 0,7.754 3.6,8.407 6.99,8.407 h 12.39 v 19.355 h -70.54 v -19.297 h 7.96 c 3.51,0 5.78,-0.586 6.96,-1.785 1.34,-1.379 1.29,-3.723 1.23,-6.203 0,-0.02 -0.02,-1.649 -0.02,-1.649 V 269 c 0,-16.75 14.88,-34.668 56.66,-34.668 42.6,0 48.06,20.613 48.06,38.555 v 63.769 c 0,7.754 3.6,8.407 6.98,8.407 h 9.03 l -0.12,19.355"
         style="fill:#e81d24;fill-opacity:1;fill-rule:nonzero;stroke:none"
         id="path44" /><path
         d="m 5593.59,393.441 c -11.21,0 -26.13,3.965 -26.13,46.809 0,32.156 8.54,46.805 26.13,46.805 18.56,0 26.13,-12.852 26.13,-46.805 0,-31.27 -9.04,-46.809 -26.13,-46.809 m -0.72,111.848 c -32.32,0 -66.86,-16.359 -66.86,-65.039 0,-41.328 24.99,-65.02 66.86,-65.02 41.87,0 66.86,23.692 66.86,65.02 0,48.68 -34.55,65.039 -66.86,65.039"
         style="fill:#e81d24;fill-opacity:1;fill-rule:nonzero;stroke:none"
         id="path46" /><path
         d="m 5577.47,208.813 c 3.87,0 17.26,-0.079 26.88,-0.079 8.74,0 14.92,-3.855 16.74,-10.566 1.09,-4.16 1.18,-10.77 -0.71,-15.957 -2.57,-7.039 -8.18,-10.645 -16.12,-10.645 -0.01,0 -20.94,-0.007 -26.79,-0.019 v 34.277 z m 86.81,-93.165 c -4.7,-0.039 -15.44,0.344 -15.44,15.051 l 0.03,4.949 c 0,5.782 -0.25,12.403 -3.1,17.727 -2.69,5.77 -9.36,9.102 -13.02,10.781 4.67,1.485 9.99,4.227 14.24,7.52 5.63,4.844 8.67,11.277 8.67,19.949 0,6.191 -1.53,12.598 -4.32,18.059 -6.01,10.046 -16.19,14.656 -32.13,14.656 -0.04,0 -92.83,0.156 -92.83,0.156 l -0.05,-18.926 c 0,0 6.74,0.078 12.03,0.078 5.28,0 5.83,-5.203 5.83,-5.203 0,0 0.15,-59.023 0.16,-78.156 0,-3.094 -2.86,-6.414 -5.68,-6.414 h -12.35 l 0.06,-18.9375 h 76.83 l -0.05,18.9375 h -19.08 c -2.74,0 -6,3.699 -6,6.824 0,0 -0.02,23.574 -0.03,31.309 0.93,0 22.79,-0.008 22.79,-0.008 2.54,0 12.4,-1.27 12.17,-13.047 l -0.2,-8.137 c 0.13,-7.187 -0.63,-12.898 2.51,-20.937 5.15,-10.684 14.56,-15.8009 28.85,-15.8009 h 22.59 V 115.68 l -2.48,-0.032"
         style="fill:#e81d24;fill-opacity:1;fill-rule:nonzero;stroke:none"
         id="path48" /><path
         d="m 5133.3,0.21875 h -15.37 V 887.66 h 15.37 V 0.21875"
         style="fill:#100f0d;fill-opacity:1;fill-rule:nonzero;stroke:none"
         id="path50" /></g></g></svg>
