<svg xmlns="http://www.w3.org/2000/svg" viewBox="0 0 1920 900">
  <title>the Memorial Tournament | Workday</title>
  <path fill="#02442F" d="M1062.7,217.4c-3.2-21.7-13.7-36.9-35.2-43.9c-11.6-3.8-23.4-7.4-33.8-14.3c-7.8-5.2-12.7-12.7-16-21.1
    c-6.8-17.4-13-35.1-19.4-52.6c-0.2-0.6-0.1-1.3,0-2.3c1.8-0.2,2.8,0.9,3.9,2c23.1,23.6,49.6,43.6,72.6,67.4c7.7,8,15,16.4,20.6,26.1
    c1,1.7,1.9,3.5,2.4,5.8c2.8,4.1,3.1,9.1,7.5,13.2c-1.2-17-2.4-33.1-3.7-50.4c6.7,7.2,11.5,14.4,15.9,21.9
    c8.6,14.5,13.9,30.1,13.5,47.2c-0.2,9.1-3,17.6-6.6,25.8c-5.4,12-12.3,23.1-19.3,34.2c-1,1.6-2,3.1-2.2,5.7
    c-0.4,1.3-0.7,1.8-1.2,2.7c-8.3,11.9-16.7,23.2-27.2,32.9c-11.9,10.9-24.8,20.5-38.4,29.4c-1.1,0.7-2.5,1-3.9,1.8
    c-0.3,0.2-0.2,0.6-0.2,0.8c-1.6,2.2-3.9,1.7-6,1.7c-7.6,0.1-15.2,0.1-21.3-0.1c11.4,5,24.1,10.3,37.1,15.6c4,1.9,7.7,3.8,11.6,5
    c3.5,1.1,2,3.1,1.5,5c-0.6,2.3-1.7,3.3-4.3,2.2c-6.2-2.7-12.5-5.1-19-7.9c-9.7-3.1-18.5-7.4-27.2-11.9c-7.3-3.7-13.7-3.7-20.6,0.1
    c-7.3,4-15.2,6.8-22.7,10.4c-1.1,0.5-2.1,0.9-3.7,1c-6.9,2.9-13.4,5.5-19.8,8.4c-2.6,1.2-3.3-0.4-4-2.1c-0.7-2-1.7-4.1,1.4-5.2
    c3.5-1.3,7-2.8,10.7-4.4c9-4.4,18.3-7.4,27.2-11.5c3.9-1.8,7.7-4,11.2-4.7c-5.9,0.1-12.9,0.1-19.9,0c-2.3,0-4.7,0.3-7-1.3
    c-0.2-0.3-0.3-0.7-0.3-0.9c-6.4-2.4-11.5-6.8-16.9-10.5c-10.5-7.1-20.2-15.2-29.3-24c-8.6-8.3-15.7-18-22.6-28.2
    c-0.7-1-1.1-1.7-1.9-2.8c-0.2-5.1-3.5-8-5.6-11.5c-8.6-14-17.5-28-21.5-44.1c-3.8-15-1.3-29.9,4.5-44.1c5-12.3,12.3-23.4,20.7-33.8
    c0.5-0.6,1.2-1.1,2.8-2.4c-1.4,17.4-2.7,33.8-4,50.2c0.2,0.1,0.5,0.2,0.7,0.2c2-3.9,4-7.9,6.2-12.1c3.9-11.8,12.1-20.2,19.7-29
    c16.3-18.6,35.9-33.6,54-50.3c7.8-7.2,15.6-14.5,23-22.6C947,84,947,84,947,84c0.5-0.4,1.1-0.4,1.9-1c0.2-0.2,0.1-0.5,0.1-0.6
    c0.5-0.1,0.9-0.2,1.7-0.2c-1.7,7.7-5,14.9-7.7,22.4c-3.4,9.5-6.9,19-10.1,28.6c-6.1,18.1-18.7,29-36.6,35
    c-10.7,3.6-22,6.3-31.4,13.3c-11.4,8.4-16.6,20.3-18.9,34.2c1.6,3.4-0.5,6.2-0.6,9.2c-0.3,14.7,0.7,29.3,4.7,43.5
    c0.7,2.6,1.5,5.1,1.6,8.2c3.4,9.6,8.8,17.5,15.7,24.2c4.1,4,7.1,9.2,13.2,11.3c-4-10.4-8.3-20.8-10.8-31.8c-1.6-7.2-2-14.4-1.8-21.7
    c0-1.1-0.5-2.6,0.9-3c1.3-0.3,2,1,2.7,1.9c6.6,8.5,13,17.1,19.7,25.5c5.8,7.4,11.7,14.8,18,21.8c13.3,14.8,27.3,29,42.6,41.8
    c1.6,1.4,2.6,1.5,4.2,0.1c3.8-3.4,8-6.4,11.7-9.9c23.3-22.3,44.8-46.1,63.6-72.3c2.1-3,4.5-5.7,6.9-8.5c0.2-0.2,0.6-0.2,1.6-0.5
    c2.5,20.7-4.5,39-12.8,57.4c1.1,0.5,1.9-0.1,2.6-0.8c10.6-10.1,21.1-20.4,27.2-34.5c-0.3-3.7,0.7-6.9,1.6-10.1
    c4.1-15.4,4.9-31.1,3.8-47C1062.1,219.4,1062.1,218.6,1062.7,217.4z"/>
  <path fill="#3069b5" d="M1166.4,818.9c-1.1-1.2-1.7-2.4-2.3-3.6c-1.7-3.2-1.4-5.4,2.5-6.7c4.6-1.6,7.8-4.9,10.6-9
    c4.4-6.4,3.2-12.2,0.2-18.8c-7.5-16.6-14.4-33.4-21.6-50.2c-0.6-1.4-1.2-2.7-1.6-4.1c-0.8-2.8,0.1-4.6,3.3-4.5c1.2,0,2.3,0,3.5,0
    c7.8,0,8.3,0.5,11,7.8c4.9,13.2,9.9,26.3,15.2,40.2c4.7-14.4,9.1-28.1,13.6-41.7c1.8-5.4,11-8.9,15.7-5.9c2.2,1.4,1.3,3.3,0.6,5.3
    c-7,19.8-13.8,39.6-20.7,59.4c-1.6,4.5-2.9,9.1-4.5,13.5c-3.2,9-9.3,15-18.7,17.9C1171,818.9,1168.9,818.9,1166.4,818.9z"/>
  <path fill="#A0A2A2" d="M1057.9,184.5c-16.8-28.5-42.8-48.9-67.1-70.7c-10.9-9.8-21.6-19.8-32.1-30.5c-0.3-0.3-0.3-0.6-0.2-0.7
    c0.3-0.2,0.6-0.3,1.2-0.4c13.5,9,28.1,14.5,43.3,18.9c13.1,3.7,25.7,8.8,35.6,18.4c7.1,6.9,11.2,15.7,13.5,25.5
    C1055.2,157.8,1055.7,171.1,1057.9,184.5z"/>
  <path fill="#232120" d="M111.1,496.4c206.6-0.4,413-0.4,619.5-0.3c2.4,0,6.8-1.6,6.7,1.5c0,2.9-4.4,1.4-6.8,1.4
    C524.4,499,318.2,499,111.6,499C111.1,498.3,111.1,497.5,111.1,496.4z"/>
  <path fill="#02442F" d="M111.1,244.4c9.2-3.3,15-9.4,17.8-18.4c0.6-2.1,1.7-3.1,3.9-3c2.9,0.2,2.2,2.4,2.3,4.1c0.1,3.5,0.1,7,0,10.5
    c-0.1,2.6,1,3.5,3.5,3.5c4.5-0.1,9,0.1,13.5-0.1c3-0.1,4.4,0.8,4.1,3.9c-0.2,1.6-0.1,3.3,0,5c0.1,2.4-1,3.2-3.3,3.1
    c-4.8-0.1-9.7,0.1-14.5-0.1c-3.3-0.2-4.3,1-4.3,4.3c0.2,9.8,0.4,19.7,0,29.5c-0.3,7.5,6.2,12.3,13.4,9.1c2.5-1.1,5-2.3,7.7-5.1
    c0,4.1,0,7,0,10c0,1.2-0.5,2.2-1.4,3c-5.5,4.5-18,5.7-24.2,2.5c-6.2-3.3-8.2-8.8-8.3-15.2c-0.1-10.5,0-21,0-31.5
    c0-6.5,0-6.5-6.4-6.5c-0.8,0-1.7,0-2.9,0C111.1,250.3,111.1,247.6,111.1,244.4z"/>
  <path fill="#02442F" d="M1809.9,223.6c-2.7,0.9-2.8-1.1-3.3-2.9c-3.3,4.4-3.5,4.4-6.3-0.8c-1,1.1,0.6,4-2,3.8c-2.3-0.2-1.2-2.7-1.3-4.2
    c-0.2-2.1-0.1-4.3,0-6.5c0-1.3-0.1-2.8,1.9-2.9c1.5-0.1,1.9,0.8,2.3,2.1c0.5,1.7,1.3,3.4,2,5.1c3.3-1.6,0.8-7.5,6.3-7.3
    C1809.9,214.4,1809.9,218.7,1809.9,223.6z"/>
  <path fill="#F59500" d="M990.6,589.3c26.2,5.7,49.1,17.3,69.6,33.6c16.3,13,29.2,29.1,39.5,47.3c2.7,4.8,5,9.9,7.3,14.9
    c2.5,5.4,1,10.8-3.6,13.1c-6.2,3.1-11.4,1.7-14.1-4.5c-8.3-18.4-19.2-35-34-48.9c-18.7-17.6-40.4-29.4-65.2-35.8
    c-15.6-4-31.3-4.8-47.1-3.7c-22,1.6-42.5,8.7-61.7,19.9c-10.5,6.2-20.2,13.5-28.7,22c-13.1,13-23.2,28.2-30.7,45.2
    c-2.9,6.5-7.8,8.7-13.2,6.7c-5.1-1.9-7.6-6.9-5.7-12.1c5.5-15.2,14.3-28.4,24.4-40.8c11.7-14.2,25.2-26.3,41-36
    c16.6-10.2,34.5-17.1,53.6-21.2c15.5-3.4,31.2-3.2,46.9-2.8C976,586.3,983.1,588,990.6,589.3z"/>
  <path fill="#02442F" d="M344.9,271.1c1.2,4.3,2.3,8.1,3.9,13.4c3-10.3,5.6-19.3,8.2-28.3c2.4-8.4,4.8-16.8,7.1-25.3
    c0.8-3,2.3-4.2,5.6-4c4.5,0.3,9,0.2,13.5,0c2.7-0.1,3.9,0.7,3.8,3.7c-0.1,24.3-0.1,48.6,0,73c0,2.6-1,3.4-3.5,3.5
    c-9.5,0.5-9.5,0.5-9.5-8.9c0-18.3,0-36.6,0-54.9c-0.3-0.1-0.5-0.1-0.8-0.2c-1.7,6-3.5,12-5.2,18c-3.9,13.8-8.1,27.6-11.6,41.5
    c-1.7,6.7-6.6,3.9-10.4,4.5c-3.8,0.6-4.4-1.9-5.3-4.9c-5.6-20-11.4-40-17.8-59.9c0,7,0,14,0,21c0,13-0.2,26,0.1,39
    c0.1,4.1-1.2,5.5-5.1,4.9c-1-0.1-2-0.1-3,0c-3.9,0.5-5.1-0.9-5.1-4.9c0.2-23.5,0.2-47,0-70.5c0-3.8,1.2-5,4.9-4.7
    c3.5,0.3,7.1,0.5,10.5,0c5.9-0.9,7.6,2.1,8.9,7.2C337.3,246.4,341.2,258.5,344.9,271.1z"/>
  <path fill="#3069b5" d="M694.9,773.9c-1.3,5-2.8,9.5-3.8,14.1c-0.5,2.3-1.6,3.1-3.7,3c-1.7,0-3.3,0-5,0c-11.7,0-11.8,0-15-11.2
    c-4.8-17.3-9.4-34.8-14.1-52.1c-0.9-3.5-0.3-5.8,4.1-5.7c10.9,0.4,9.8-2.1,12.6,9.7c3.5,15,7.7,29.9,10.8,46.6
    c4-14.9,7.6-28.4,11.1-41.9c0.3-1.1,0.6-2.2,0.9-3.3c3.7-11.5,3.7-11.4,15.8-11.1c2.9,0.1,4.6,1.1,5.3,4c3.2,12,6.6,24,9.9,36
    c1.6,5.8,3,11.6,4.6,17.6c2.2-16.1,6.7-31.6,9.8-47.3c0.1-0.6,0.5-1.2,0.6-1.9c1.4-7.7,7.1-11.1,14.1-8.2c3,1.2,2.1,4,1.7,6.1
    c-1,4.6-2.5,9.2-3.8,13.7c-4,14.7-8,29.4-11.9,44.1c-0.9,3.6-2.6,5.4-6.5,5c-3.3-0.3-6.7-0.3-10,0c-3.1,0.3-4.7-1.2-5.5-3.9
    c-4.1-15-8.1-30-12-45.1c-0.4-1.7-0.2-3.6-0.3-6.4C701.4,748.9,698.2,761.2,694.9,773.9z"/>
  <path fill="#02442F" d="M501,304.7c0-12.5-0.1-24.5,0-36.4c0-3.4-0.5-6.7-1.5-9.8c-1.3-3.9-4.2-6.9-8.6-7.4c-5.1-0.6-9.2,1.5-11.8,5.9
    c-2.7,4.5-4.1,9.4-4.1,14.7c0,10.2-0.2,20.3,0.1,30.5c0.1,4-1.2,5.5-5.1,4.9c-0.8-0.1-1.7-0.1-2.5,0c-4.3,0.7-5.7-0.9-5.6-5.4
    c0.3-19.3,0.3-38.6,0-58c-0.1-5.6,3.1-4.5,6.4-4.7c3.4-0.1,6.5-0.3,5.8,4.7c-0.3,1.7,0,3.5,0,5.7c15.5-18.1,33-13.2,39.4,2.3
    c3.3-8.1,8.9-13.2,17.7-13.6c15.7-0.8,21,7.2,21.8,21.5c0.8,14.5,0.1,29,0.2,43.5c0,3.5-1.3,4.2-4.4,4.1c-10.4-0.3-8.5,1-8.6-8.3
    c-0.1-10.3-0.1-20.7,0-31c0-3.2-0.6-6.4-1.5-9.3c-1.3-3.9-4.2-6.9-8.6-7.4c-5.1-0.6-9.2,1.5-11.8,5.8c-2.7,4.4-4.1,9.4-4.1,14.7
    c-0.1,10.5-0.1,21,0,31.5c0,3.1-1,4.6-4,3.9C507.1,306.3,503.4,309,501,304.7z"/>
  <path fill="#02442F" d="M1585.8,239.9c6.9,4.6,8.6,11,9.4,18.6c1.4,14.5,0.3,28.9,0.9,43.4c0.2,4.2-1.2,5.8-5.3,5.2
    c-1.1-0.2-2.3-0.1-3.5,0c-3.2,0.4-4.4-0.9-4.3-4.2c0.2-9.8,0.2-19.7,0-29.5c-0.1-4.1-0.4-8.3-1.2-12.3c-1-4.7-3-9-8.5-9.9
    c-5.4-1-10.1,1.5-13.2,6.9c-2.1,3.7-3.1,7.6-3.1,11.9c0,10.8-0.1,21.7,0.1,32.5c0.1,3.9-1.2,4.8-4.9,4.7c-9.7-0.3-8,1-8.2-8.3
    c-0.3-11.8,0.8-23.6-0.9-35.4c-0.9-6.4-3.8-11.4-8.3-12.3c-5.6-1.2-10.6,1.5-13.9,7.4c-2,3.6-2.8,7.4-2.8,11.4
    c0,10.7-0.1,21.3,0.1,32c0.1,3.7-0.7,5.4-4.9,5.2c-9.6-0.4-8.1,1-8.2-8.3c-0.1-18.2,0.2-36.3-0.1-54.5c-0.1-4.7,1.7-5.6,5.8-5.4
    c3.6,0.2,7.4-0.6,6.4,5.1c-0.2,1.3,0,2.6,0,5.1c5.7-7.3,12-11.9,20.9-11.2c8.8,0.7,14.9,4.8,17.5,13.7
    C1563.8,238.3,1572.3,235,1585.8,239.9z"/>
  <path fill="#3069b5" d="M969.1,791c-4.1,0-7,0.1-9.8-3.8c-7-9.9-15.1-19-23.3-29.3c0,9.7-0.2,18.6,0.1,27.5c0.2,4.4-1.4,6.2-5.7,5.6
    c-0.8-0.1-1.7-0.1-2.5,0c-4.6,0.7-6-1.1-6-5.8c0.2-25.3,0.1-50.6,0.1-76c0-4.8,0.2-9.7-0.1-14.5c-0.2-3.8,1.3-5.2,5-4.8
    c1,0.1,2,0.1,3,0c4.5-0.4,6.2,1.7,6.2,6.1c-0.1,17-0.1,34-0.1,51c0,1.3,0,2.7,0,4c4.3-4.2,8.8-8.1,12.8-12.6
    c4.1-4.5,7.9-9.3,12-13.8c2.3-2.5,12.8-4.2,15.5-2.5c2.9,1.9,1.8,4-0.2,6.1c-7.2,7.2-14.4,14.4-21.6,21.6c-5,5-4.8,4.9,0.1,10.3
    c7.3,8.1,14.4,16.3,21.6,24.6c1.2,1.4,2.3,3.1,1.7,5c-0.9,2.4-3.2,0.9-4.8,1.2C971.9,791.2,970.7,791,969.1,791z"/>
  <path fill="#A0A3A3" d="M847.7,284.6c6,6.5,10,14,15.7,20.4c15.4,17.4,33.9,30.9,53.4,43.7c-20,0.3-39.1-4.1-56.1-14.9
    c-18.3-11.5-30.6-28.1-37.7-48.5c-3.3-9.5-6.7-18.9-9.1-29.3c10.5,9,21,17.9,31.8,27c0.3,0.2,0.3,0.1,0.3,0.1
    C846.5,283.4,847.1,283.8,847.7,284.6z"/>
  <path fill="#A1A3A3" d="M992.5,349c0.3-2.3,2.7-2.8,4.3-3.9c20.4-13.6,39.7-28.3,54.6-48.1c3.1-4.1,5.2-8.9,9.5-12.5
    c0.5-1,0.9-1.8,1.9-2.3c0.3-0.2,0.2-0.1,0.2-0.1c6.3-3.8,11.3-9.4,17.1-13.9c4.9-3.8,9.5-8,15-11.6c-2.4,7.4-4.7,14.9-7.2,22.3
    c-5.6,16-12.8,31-25.2,43c-14,13.5-30.9,21.4-49.8,25.1C1006.3,348.2,999.7,349.4,992.5,349z"/>
  <path fill="#02442F" d="M162,285c0-19.2,0.1-37.8-0.1-56.5c-0.1-4.3,0.9-6.3,5.5-5.6c1.3,0.2,2.7,0.1,4,0c2.9-0.3,3.7,1.1,3.7,3.8
    c-0.1,7.4,0,14.9,0,23.4c3.1-3.7,5.2-7,8.4-8.8c8-4.7,16.5-5.1,24.7-0.7c7.4,3.9,9.9,10.8,9.9,18.8c0,14.2-0.1,28.3,0.1,42.5
    c0,3.7-0.6,5.4-4.9,5.2c-9.6-0.4-8.1,1-8.2-8.3c-0.1-10.5,0-21,0-31.5c0-10.5-3.9-15.9-11.9-16.3c-8.6-0.5-15.7,6.1-17.1,15.3
    c-1.8,11.8-1,23.6-0.8,35.3c0.1,6.5-3.6,5.1-7.3,5.4c-4.2,0.4-6.5-0.6-6-5.6C162.4,296.2,162,290.8,162,285z"/>
  <path fill="#A0A3A2" d="M946.6,84c1.5,2.8-1.2,3.6-2.5,4.9c-19.2,19.4-40.4,36.5-60.2,55.3c-12.9,12.3-25,25.3-33.6,41.5
    c0.8-8.4,1.8-16.9,3-25.5c0.8-5.6,1.9-11.2,3.2-16.7c4.6-19.1,17.3-30.3,34.7-37.5c14.9-6.2,31.3-8.7,45.5-16.9
    C939.9,87.3,943.1,85.7,946.6,84z"/>
  <path fill="#02442F" d="M1678.3,307c-2.9-0.5-2.3-2.5-2.3-4c0-20,0-40-0.1-59.9c0-3,0.9-4,4-4.1c7.9-0.1,7.9-0.2,8.2,10.9
    c1.5,0.2,1.9-1.2,2.3-2c5.3-9.8,20.1-11.9,29.2-8.6c6.8,2.5,9.9,7.9,11.4,14.6c1.1,5.2,1.1,10.5,1,15.8c0,10.8-0.2,21.6,0.1,32.5
    c0.1,3.6-0.9,5-4.7,4.9c-9.9-0.4-8.3,1-8.3-8.1c-0.1-9.5-0.2-19,0-28.5c0.1-3.7-0.6-7.3-1.4-10.8c-1.6-7.3-10.1-11-17.4-7.8
    c-8.3,3.6-10.9,10.8-11.2,19c-0.4,10.1-0.3,20.3,0,30.5c0.2,4.7-1.3,6.4-5.9,5.7C1681.8,306.8,1680.3,307,1678.3,307z"/>
  <path fill="#02442F" d="M1389.3,258.5c-2.4,5.2-3.5,10.3-3.3,15.7c0.3,9.3-0.1,18.7,0.2,28c0.1,3.7-0.9,5-4.7,4.8
    c-9.9-0.4-8.3,1-8.3-8.1c-0.1-18.3,0.2-36.6-0.2-54.9c-0.1-5.1,2.3-5.2,6-5.1c3.4,0.1,6.9-0.5,6.1,4.9c-0.3,2,0,4,0,6
    c1.2,0.6,1.5-0.6,1.8-1.1c6.3-10.9,19.3-12.6,29.8-9.3c6.6,2.1,11.3,8.8,11.4,16c0.1,15.8,0,31.6,0.1,47.5c0,3.4-1.2,4.3-4.4,4.2
    c-9.2-0.2-7.6,0.7-7.7-7.7c-0.1-9.5-0.1-19,0-28.5c0.1-3.9-0.7-7.6-1.5-11.3c-1.9-8.9-13.8-11.7-21.3-5.3
    C1391.9,255.5,1390.7,256.9,1389.3,258.5z"/>
  <path fill="#02442F" d="M1305,281c0,7.5-0.2,14.5,0.1,21.5c0.1,3.4-0.9,4.7-4.5,4.6c-9.2-0.3-7.4,0.4-7.6-7.4c0-0.9-0.1-1.9-0.2-3.7
    c-2.9,3.5-5.1,6.8-8.3,8.6c-8,4.7-16.5,5.1-24.7,0.7c-7.3-3.9-9.8-10.9-9.8-18.8c-0.1-14.2,0.1-28.3-0.1-42.5
    c-0.1-3.8,0.9-5.3,5-5.1c9.5,0.4,8-0.9,8.1,7.9c0.1,12.2,0,24.3,0,36.5c0,7.2,2.8,11.3,8.5,12.8c6.4,1.7,13.6-1.2,16.7-6.6
    c2.6-4.6,3.9-9.4,3.8-14.7c-0.1-10.3,0.1-20.7-0.1-31c-0.1-3.6,0.8-5,4.7-4.9c9.9,0.4,8.3-1,8.4,8.1
    C1305.1,258.2,1305,269.3,1305,281z"/>
  <path fill="#232120" d="M1365,496c142.5,0,284.4,0,426.4,0.1c2.1,0,6-1.3,6,1.3c-0.1,3.2-4,1.6-6.2,1.6c-205.1,0.1-410.2,0.1-615.4,0
    c-2.2,0-6.3,1.5-6.2-1.5c0-2.8,4.2-1.3,6.4-1.3C1238.9,496,1301.7,496,1365,496z"/>
  <path fill="#02442F" d="M1142,262c0-6.3-0.1-12.2,0-18c0.1-3-0.8-4.2-3.9-4.1c-4.3,0.2-8.7-0.1-13,0.1c-3.4,0.2-4.3-1.2-4.2-4.3
    c0.3-10.5-1.1-8.6,8.7-8.7c14.5-0.1,29,0.1,43.4-0.1c4.1-0.1,5.4,1.3,4.9,5.1c-0.1,1-0.1,2,0,3c0.6,3.9-0.9,5.4-4.9,5.1
    c-4-0.3-8,0.2-12-0.1c-4.3-0.4-5.2,1.4-5.2,5.4c0.2,18.6-0.1,37.3,0.2,55.9c0.1,4.5-1,6.1-5.8,5.9c-8.3-0.4-8.3-0.1-8.3-8.7
    C1142,286.5,1142,274.5,1142,262z"/>
  <path fill="#02442F" d="M1766,226.3c-0.2,3.9,0.4,7.4-0.8,10.8c-0.9,2.6,0.2,4,3.2,3.9c4.5-0.2,9,0.1,13.5-0.1c2.9-0.1,4.4,0.7,4.1,3.9
    c-0.2,1.6-0.1,3.3,0,5c0.1,2.4-0.9,3.2-3.3,3.2c-4.3-0.1-8.7,0.2-13-0.1c-3.6-0.2-5,0.8-4.9,4.7c0.3,9.5,0.6,19-0.1,28.4
    c-0.7,9.8,6.3,13.1,15.2,8.9c1.9-0.9,2.6-3.5,5.1-3.5c0.2,0,0.6,0.4,0.6,0.7c-0.2,3.8,1.7,8-1.8,11.3c-2.3,2.1-5,3.4-7.9,3.9
    c-11.6,2-20.9,0.3-23.7-10.8c-0.6-2.4-0.4-4.9-0.4-7.4c0-10.5-0.2-21,0.1-31.4c0.1-3.8-1.1-4.9-4.8-4.8c-2.1,0-5.7,2-6.2-2.5
    c-0.4-3.8-0.2-6.9,4.6-8.3c7.7-2.2,11.3-8.7,13.7-15.8c0.6-1.7,0.9-3.5,3.5-3.3C1764.9,223.1,1766.1,223.6,1766,226.3z"/>
  <path fill="#3069b5" d="M859,764c0-12.5,0-24.5,0-36.4c0-2.3-1-5.6,3.1-5.5c3.4,0.1,7.6-1.6,9,3.7c0.4,1.4,1,2.7,1.5,4.1
    c2.5-0.5,3.4-2.7,5-4c5.9-4.9,12.5-6.2,19.8-3.9c2.7,0.9,3.7,2.6,2.8,5.6c-2.4,8.2-2.6,8.4-10.8,6.6c-9.3-2.1-16.3,4.4-16.4,15.6
    c-0.1,12-0.2,24,0.1,35.9c0.1,4.3-1.4,5.8-5.5,5.3c-1.3-0.2-2.7-0.1-4,0c-3.4,0.3-4.8-1.1-4.7-4.6C859.1,779.1,859,771.8,859,764z"
    />
  <path fill="#02442F" d="M645.6,264.8c-2.5,12.4-1.5,24.6-1.5,36.7c0,4.3-1,6.3-5.5,5.6c-1.5-0.2-3-0.1-4.5,0c-2.4,0.2-3.1-1-3.1-3.3
    c0-20.5,0-41,0-61.5c0-2.3,0.8-3.1,3.2-3.3c9.4-0.7,9.4-0.8,10.1,10.4c0.9-1.7,1.7-3.1,2.4-4.5c4.5-8.7,15.4-8.4,21.6-4.3
    c1.3,0.9,1.7,1.8,1.7,3.3c0,2.3-0.1,4.7,0,7c0.3,3.6-0.7,4.3-4.1,2.6C656,248.8,648,253.3,645.6,264.8z"/>
  <path fill="#02442F" d="M1337.3,245.4c4.6-9.3,15.6-8.7,22.3-4.5c1.4,0.9,1.4,2.1,1.4,3.4c0,2.5-0.1,5,0,7.5c0.2,3.2-1.1,3.1-3.5,2.1
    c-12-5.3-18.2,0.5-20.7,9.5c-1.5,5.3-1.9,10.7-1.8,16.2c0.1,7.8-0.1,15.7,0.1,23.5c0.1,3-0.8,4.1-4,4.1c-11.2-0.3-9,1.1-9.1-8.9
    c-0.1-18,0.1-36-0.1-54c-0.1-4.2,1.1-5.9,5.3-5.2c0.8,0.1,1.7,0.1,2.5,0c4-0.6,6,0.8,5.3,5.1c-0.2,1.6,0,3.2,0,6.1
    C1336.1,247.9,1336.6,246.8,1337.3,245.4z"/>
  <path fill="#02442F" d="M774,254c0,16.3-0.1,32.1,0.1,48c0,3.8-0.8,5.3-4.9,5.1c-9.6-0.4-8.1,1-8.1-8.4c-0.1-23.5,0.1-47-0.1-70.4
    c0-4,0.9-6,5.2-5.3c1.1,0.2,2.3,0.2,3.5,0c3.6-0.5,4.5,1.1,4.5,4.5C773.9,236.2,774,244.8,774,254z"/>
  <path fill="#02442F" d="M691,276c0,9.2-0.1,17.8,0.1,26.5c0.1,3.4-0.9,4.7-4.5,4.6c-10.3-0.3-8.5,1-8.6-8.4c-0.1-18.3,0-36.6-0.1-55
    c0-3.1,0.4-4.5,4-3.8c2.8,0.5,7.5-0.9,8.4,0.4c1.5,2.2,0.7,6,0.7,9.2C691,258.2,691,266.8,691,276z"/>
  <path fill="#A0A2A2" d="M916.5,349.9c10.4-0.1,20.4-0.1,30.4-0.1c0.1,0.3,0.2,0.6,0.3,0.9c-1.9,1-3.8,2.1-5.8,3
    c-9.8,4.2-19.5,8.3-29.3,12.4c-1.7,0.7-3.4,1.3-5.7,1.1c-10.8-4.9-21.6-9.4-30.8-17.1C889.1,350,902.6,350,916.5,349.9z"/>
  <path fill="#A0A3A2" d="M1002.4,367.1c-4.2,0.3-7.4-1.7-10.7-3c-10.2-4-20.3-8.2-29.9-14.1c9.8,0,19.6,0,29.8-0.1
    c14-0.1,27.5-0.1,41.1-0.1c0.1,0.4,0.3,0.8,0.4,1.3C1023.4,357.3,1013.4,362.6,1002.4,367.1z"/>
  <path fill="#9FA2A2" d="M917.4,371.1c11.1-6.6,23.4-11.5,35.5-16.7c1.4-0.6,2.6,0,3.8,0.5c11.5,5.1,22.9,10.3,34.5,15.7
    c-17.7,5.6-26.9,1.9-37-11.9C945.3,372.3,932.9,376.2,917.4,371.1z"/>
  <path fill="#02442F" d="M677.4,233.5c-2.8-6.7,1-11.6,8.1-10.3c3.1,0.6,7.1,0.3,7.6,5.4c0.6,6.1-4.4,7.4-10.3,7.1
    C681.1,235.6,679.4,234.5,677.4,233.5z"/>
  <path fill="#02442F" d="M1789.2,210c1.6,0,2.8,0,3.9,0c1.1,0,2.5-0.2,2.7,1.4c0.1,1.3-1,1.5-2,1.6c-1.8,0.3-1.7,1.7-1.7,3
    c0,1.8,0,3.6,0,5.4c0,1-0.1,2.1-1.4,2.2c-1.3,0.1-1.5-1-1.5-2c0-1.8,0-3.6-0.1-5.4c0-1.3,0.3-2.8-1.5-3.2c-1.1-0.3-2.6-0.3-2.1-2
    C1785.8,209.4,1787.5,210.2,1789.2,210z"/>
  <path fill="#A0A3A2" d="M948.7,82.8c0.4,1-0.3,1.4-1.5,1.4C947.1,83.2,947.7,83,948.7,82.8z"/>
  <path fill="#A1A3A3" d="M944.8,192.6c4.9-10,4.2-15.8-1.9-22.3c-3-3.2-6.5-3.4-10.4-3.3c-1.1,0-2.8,0.9-3.4-1c-0.5-1.6,0.8-2.4,1.8-3.3
    c3.9-3.9,11.8-3.7,16.7,0.4c0.9,0.7,1.5,1.9,2.5,2.4c1.6,0.7,1.2,4,3.6,3.1c1.9-0.7,3-2.8,3.2-4.7c0.5-5.4,5.2-6.8,8.7-7.5
    c4.9-1.1,9.8,0.9,12.5,5.8c3.5,6.4,2.6,14.1-2.2,19.6c-0.7,0.8-2.3,1.6-1.6,2.8c1.8,3.1-0.7,2.4-2.1,2.4c-3.2-0.1-5.5,1.1-6,4.4
    c-0.6,3.3,0.9,5.2,4.4,5.9c1.9,0.4,3.1,7.7,1.2,9.2c-1.9,1.5-1.6,3-1.6,4.7c0,10-0.5,20,0.1,30c0.5,8.2-2.4,15.1-6.5,21.6
    c-1.8,2.9-2.6,5,0.1,8c2.8,3.1,4.8,6.7,9.5,7.5c1.9,0.3,3.1,2.4,2.7,4.7c-0.4,2.6,0,4.7,3.5,4.1c2.1-0.4,2.2,1,2.8,2.5
    c1,2.7,1,5.5,3.2,8c2.7,3.1-0.9,8.5-5.2,8.5c-17.8,0-35.7-0.1-53.5,0.1c-3.6,0-4.6-1.7-6.1-4.4c-1.5-2.8-0.1-4,1.5-5.5
    c1-0.9,1.9-1.8,1.7-3.4c-0.3-3.8,0.7-6.3,5.4-6c2.7,0.2,1.5-2.5,1.5-3.9c0-3,0.2-5.1,4.2-5.1c2.9,0,9.7-8.1,9.9-11
    c0-0.8,0.2-2-0.3-2.4c-4.5-4-5.4-9.9-7.8-14.9c-0.6-1.3-1.1-2.5-0.9-3.7c2.1-11.9,0.4-23.9,0.9-35.8c0-0.7,0.2-1.6-0.1-2
    c-4.9-5.3,0.2-7.6,3.3-10C942.1,196.6,942.8,194.4,944.8,192.6z"/>
  <path fill="#A1A3A3" d="M852,276.6c-4.3-7.4-5.3-16.2-6.6-24.8c-1.2-8-1.6-16.2-1.4-24.4c0.1-3.7,0.7-7.2,2.1-11
    c5.1-10.1,10.5-19.5,18.8-26.9c7.5-6.6,16-10.9,25.6-13.4c0.8-0.2,1.8-0.4,2.3,0.3c0.6,0.9,0,1.8-0.4,2.7c-4,8.9-7.8,17.8-11.8,26.7
    c-9.2,20.4-17.2,41.3-25.5,62C854,270.7,853,273.5,852,276.6z"/>
  <path fill="#A1A3A3" d="M1062.6,216.9c3.7,20.4,0.6,40-5.5,59.8c-6.5-15.4-12.7-31.2-19.1-46.8c-5.4-13.1-11-26-16.6-39
    c-2.1-4.8-4.3-9.4-6.8-15c7.7,1,13.9,3.6,19.9,7.1C1047.8,190.9,1056.3,202.8,1062.6,216.9z"/>
  <path d="M847.9,284.5c-0.6-0.1-1.2-0.5-1.9-1.2C846.9,282.9,847.6,283.1,847.9,284.5z"/>
  <path d="M1062.7,282c-0.2,0.6-0.7,1.3-1.4,2.1C1061.1,283.3,1061.2,282.3,1062.7,282z"/>
  <path d="M1027,313c-0.1,0.5-0.3,0.9-0.4,1.4c-0.7-0.3-0.4-0.7,0.1-1.3C1027,313,1027,313,1027,313z"/>
  <path d="M881,312c0.5,0.4,1.3,0.7,0.4,1.4c-0.2-0.3-0.3-0.6-0.4-1.1C880.9,312.1,881,312,881,312z"/>
  <path fill="#3069b5" d="M1056,699.5c0-10.4,1.7-9.4-9.7-9.5c-3.3,0-4.4,1.2-4.4,4.4c0.1,10,0.1,20,0,30c0,1.3,0.7,2.9-0.7,4.1
    c-13.5-13.9-38.8-8.4-43.9,12.7c-1.8,7.3-2,14.8-1.3,22.2c0.7,7.3,2.4,14.6,7.3,20.6c6.6,8.2,21.9,10.6,33.1,4.8
    c2.3-1.6,3.3-4.2,6-4.7c1.3,6.2,3.3,7.6,9.3,6.9c5-0.6,4.1-4.3,4.2-7.6C1056,755.5,1056,727.5,1056,699.5z M1041.8,764.4
    c-0.6,2-1.1,3.5-1.6,5.1c-2.9,9.1-6.1,11.6-14.7,11.6c-6.8,0-10.6-3.1-12.8-11.8c-2.6-10.4-2.2-20.6,2.1-30.7
    c3.8-8.9,16.9-9.2,22.2-1.6c3.4,4.8,4.5,10.1,4.9,15.7C1042.2,756.3,1041.9,760.1,1041.8,764.4z"/>
  <path fill="#3069b5" d="M1139,764c-0.2-7.1,1-14.2-1-21.7c-0.2-0.7-0.3-1-0.4-1.3c-3.3-11.2-10.9-18.3-22.2-19.8
    c-12.9-1.7-24.8,0.9-32.2,13.2c-5.6,9.4-5.9,19.8-4.7,30.2c0.8,6.6,3,12.9,7.6,17.8c11.1,12,26.3,12.7,39.6,1.9c0.5,1.1,1,2,1.3,3.1
    c1.4,4.9,5.4,3.5,8.7,3.4c3.4-0.1,3.4-2.7,3.4-5.4C1138.9,778.3,1139.1,771.2,1139,764z M1124,769c-1.6,6.6-6.5,13-16.6,12.1
    c-6.7-0.6-12.1-5.4-13.4-12.9c-1.3-7.3-1.2-14.6-0.2-22.1c1.3-9.6,9.4-17.8,22-13.2c6.6,3.9,8.4,9.9,9.3,16.7
    C1126,756.2,1125.5,762.6,1124,769z"/>
  <path fill="#3069b5" d="M830.7,734.4c-9.2-16.2-36.7-16.7-47.6-7.3c-6.6,5.7-10.3,12.6-11.6,20.9c-1.5,10.1-1.1,20.2,4.4,29.2
    c7.3,12.1,19,15.9,32.3,14.6c11.3-1.1,20.2-7.1,24.4-17.6C837.9,761.2,837.9,747.6,830.7,734.4z M819,769.3
    c-2.3,7.6-8.5,12.4-15.3,12.6c-7.1,0.2-13.9-4.9-16-12.8c-2.8-10.9-3.4-21.7,3.3-32.1c5.9-6.1,12.7-7.2,19.8-3.8
    c6.1,2.9,8.1,8.8,9.4,15.3C821.5,755.6,821,762.5,819,769.3z"/>
  <path fill="#02442F" d="M1236.8,261.4c-0.8-5.6-3-10.9-7-15.1c-8.4-8.8-18.9-9.1-29.9-7.7c-11.5,1.4-18.3,8.2-21.6,18.6
    c-3.2,10.1-2.9,20.6,0,30.8c1.8,6,4.6,11.7,10.3,15.3c9.7,6.3,20.1,6,30.6,3.1c7.5-2.1,12.2-7.2,15.2-14.5c2.1-4.9,2.2-10,3.6-15.3
    C1238.6,271.2,1237.5,266.2,1236.8,261.4z M1221.1,289.4c-3.9,5.9-10,8.3-17.1,6.8c-1-0.2-2-0.2-3.3-0.4
    c-8.1-4.1-11.4-10.7-11.6-19.1c-0.1-4.4-0.6-8.9,0.9-13.3c2.9-8.6,8.4-12.5,17.9-12.4c8.4,0.1,14.8,4.5,16.4,13
    C1225.9,272.6,1226.4,281.5,1221.1,289.4z"/>
  <path fill="#02442F" d="M622.1,263.1c-1.2-11.2-8.9-21.5-18.9-23.9c-5-1.2-10.2-1.7-15.3-1.2c-10.4,0.9-18.6,5-23.2,15.2
    c-2.1,4.7-2.8,9.5-3.4,14.4c-1.2,9.9,0.4,19.5,5.2,28.3c8.4,15.3,32.3,14.4,42.7,8.2c8-4.7,10.6-12.7,12.7-21.5
    C623.3,275.9,622.8,269.6,622.1,263.1z M604.3,291.9c-8.1,7.9-24.4,7-29-7.7c-2-6.4-1.7-13-0.6-19.6c1.3-7.3,5.8-11.5,12.6-13
    c6.9-1.6,13.5-0.4,18.8,5.5C612.3,266.1,611.6,284.8,604.3,291.9z"/>
  <path fill="#02442F" d="M278.9,260.5c-1.2-9.6-5.1-17.8-15-20.9c-10.3-3.2-20.2-2.5-29,4.9c-6.9,5.9-9.8,13.7-10.6,22.3
    c-1.1,11.4,0.3,22.6,7.4,32.2c6.8,9.3,23,12.1,34.6,6.4c9.6-4.7,12.4-11.8,8.8-21.9c-10.2,12.4-15.3,15.3-24.7,13.4
    c-7.5-1.5-11.4-6.8-13.3-14.4c-0.6-4.1,0.5-5.7,4.7-5.6c11.3,0.3,22.6,0,34,0.2c3.2,0,4.2-1,4.3-4.2
    C280.2,268.6,279.4,264.6,278.9,260.5z M267.1,266c-9,0-18-0.1-27,0c-2.9,0-3.4-1.2-2.7-3.8c1.9-7.9,8.9-12.5,19.1-12
    c7.2,1.5,11.6,5.1,13,12.3C269.9,265.1,269.7,266,267.1,266z"/>
  <path fill="#02442F" d="M452,269c0.1-3.3-0.4-6-0.9-8.8c-2-12.7-8.5-20.2-19.5-22.1c-12.7-2.2-25.5,3.8-30.8,14.3
    c-6,12.1-5.3,24.5-1.9,37.1c5.3,19.7,27.9,21.9,40.6,15.5c3.7-1.9,8-4,8.4-9.1c0.3-4,0.1-8.1,0.1-12.2c-2,1.3-3,3-4.1,4.5
    c-5.3,7.4-13,10-21.5,8.4c-7.5-1.4-11.8-6.9-13.2-14.5c-0.7-3.7,0-5.5,4.4-5.4c10.3,0.3,20.7,0.1,31,0.1
    C453,276.9,451.9,278,452,269z M438.5,266c-6-0.2-12,0-18.4,0c-1.5,0-2.5,0-3.5,0c-8.6,0-9.1-0.9-4.7-8.7c2.6-4.6,10.5-8.1,15.9-7.2
    c8.1,1.4,12.9,5.5,14.1,12.1C442.4,264.9,441.5,266.1,438.5,266z"/>
  <path fill="#02442F" d="M1624.7,277c11.2,0,22.3-0.1,33.5,0.1c3.6,0.1,5.2-0.7,4.9-4.7c-0.4-4.1-0.3-8.2-0.9-12.4
    c-2-13.1-9.1-20-19.7-21.9c-12.6-2.2-25.4,3.8-30.5,14c-4.3,8.7-5.2,17.9-4,27.4c1.2,10.1,4.3,19,13.5,25.2c8.6,4.5,17.4,4.4,26,1.8
    c4.9-1.5,10.3-4.1,11.4-10.1c0.7-4.1,0.1-8.4,0.1-12.6c-2,1.4-3,3-4.1,4.5c-5.3,7.4-13,10-21.5,8.4c-7.2-1.4-11.4-6.8-13-14.1
    C1619.3,278,1620,277,1624.7,277z M1620.6,262.8c2.8-8.4,8.8-13.3,16.5-12.6c8.2,0.7,12.7,2.8,15.3,10.8c1.2,3.6,0.4,5.2-3.7,5.1
    c-8.3-0.2-16.6,0-24.9-0.1C1622.2,266,1619.4,266.8,1620.6,262.8z"/>
  <path fill="#02442F" d="M1488.9,256.1c-0.2-7.1-2.9-13.5-10.3-16.2c-9.7-3.6-19.4-2.8-28.2,2.6c-2.9,1.8-7,3.2-7.4,7.5
    c-0.3,3.7-0.1,7.5-0.1,11.9c3-2.4,5.3-4.3,7.6-6.1c5.7-4.6,12-5.9,19.1-4.1c3.8,1,6,3,6.3,7.2c0.3,4.6-2.5,6.7-6.1,7.9
    c-5.5,1.9-11.1,3.3-16.6,5.2c-12.6,4.2-15.9,14.3-11.8,27.1c2.7,10.5,21.9,11.9,29.7,4.1c1.4-1.5,3-2.8,4.6-4.4
    c0.3,8.3,0.3,8.3,8.6,8.2c0.2,0,0.3,0,0.5,0c3,0.4,4.1-0.8,4.1-3.9C1488.9,287.4,1489.2,271.8,1488.9,256.1z M1459.6,297.7
    c-3.7-1.5-6.8-3.2-6.6-7.5c0.2-4.3,2.1-7.3,6.2-9.4c5.2-2.6,10.8-4.1,16.2-6.2C1477.8,287.7,1471.1,297.6,1459.6,297.7z"/>
  <path fill="#02442F" d="M750,258.7c0-5.1-1-9.9-4.2-14.4c-2-2.4-4.2-4-6.8-4.7c-10.5-3-20.6-2.6-29.7,4.5c-5.6,4.3-7.2,10.9-4.2,17.4
    c6.4-6.4,13.4-11.3,23.1-10.5c6,0.5,9.1,3.7,8.8,9.2c-0.2,4.3-3.4,5.6-6.7,6.9c-7.6,3.1-16.1,3.7-23.1,8.8c-8.3,6-8.3,23.6,0.2,29.3
    c7.1,4.8,18.6,3.9,24.9-2c1.5-1.4,3-2.8,4.6-4.3c0.3,8.1,0.3,7.9,7.6,8.2c4.3,0.2,5.8-0.9,5.7-5.5C749.8,287.3,750,273,750,258.7z
    M722.1,298c-4.1-1.1-7.8-2.4-8.1-7.2c-0.3-5,2.5-7.9,6.6-10.1c5-2.7,10.5-4,15.7-6.1C738.7,286.8,733.5,295.5,722.1,298z"/>
  <path fill="#3069b5" d="M1229.6,774.2c-4.1-3.6-10.9-3-14.5,1.2c-3,3.6-2.8,9,0.4,12.6c3.4,3.7,8.4,3.9,13.6,0.3
    C1233.4,783.7,1233.4,777.4,1229.6,774.2z M1218.7,786.2c-1.9,0.3-1.4-1.8-2.5-2.9c-0.1-2.8-1-5.4,2.5-6.9
    C1218.7,779.9,1218.7,783,1218.7,786.2z M1220.5,787.9c1.2-1.2,1.8-2.3,1.7-4.1c1.1,1.1,2.1,2.5,3.2,4.1
    C1223.8,787.9,1222.4,787.9,1220.5,787.9z M1228.7,784.4c-0.5,0.7-1.2,0.5-1.5-0.1c-0.7-1.1-1.2-2.3,0.2-3.3
    c0.2-0.2,0.3-0.5,0.5-1.2c0.1-0.8,0-1.7,0.2-1.7c1.5-0.4,1.4,1.1,1.7,1.8C1230.5,781.5,1229.6,783,1228.7,784.4z"/>
</svg>
